<?xml version="1.0" encoding="utf-8"?>
<!-- Generator: Adobe Illustrator 16.0.4, SVG Export Plug-In . SVG Version: 6.00 Build 0)  -->
<!DOCTYPE svg PUBLIC "-//W3C//DTD SVG 1.1//EN" "http://www.w3.org/Graphics/SVG/1.1/DTD/svg11.dtd">
<svg version="1.1" id="Layer_1" xmlns="http://www.w3.org/2000/svg" xmlns:xlink="http://www.w3.org/1999/xlink" x="0px" y="0px"
	 width="396px" height="167.275px" viewBox="0 0 396 167.275" enable-background="new 0 0 396 167.275" xml:space="preserve">
<g>
	<circle fill="#2c3e50" cx="116.398" cy="60.88" r="8.964"/>
	<circle fill="#2c3e50" cx="139.396" cy="127.099" r="8.57"/>
	<path fill="#2c3e50" d="M150.45,83.011l-26.703-9.522c-0.279-0.086-0.58-0.165-0.864-0.202l-14.557-1.973c-0.729-0.107-1.456-0.021-2.137,0.246
		l-23.972,9.354c-2.213,0.865-3.283,3.341-2.427,5.536c0.865,2.213,3.343,3.282,5.535,2.426l18.99-7.411l-1.592,10.981
		l-5.301,17.616l-16.306,4.636c-2.076,0.543-3.658,2.34-3.879,4.4c-0.057,0.745,0.076,1.477,0.385,2.123
		c0.069,0.155,0.152,0.303,0.24,0.443c0.98,1.576,2.94,2.269,4.876,1.72l19.2-5.542c1.658-0.454,3.007-1.755,3.493-3.373
		l5.362-10.309l1.88-0.086l7.893,10.345l-6.541,14.593c-0.868,1.83-0.449,4.03,1.024,5.392c0.546,0.474,1.199,0.801,1.898,0.953
		c0.165,0.039,0.332,0.065,0.498,0.082c1.842,0.202,3.606-0.825,4.384-2.555l7.636-17.232c0.679-1.472,0.501-3.214-0.46-4.51
		l-6.587-13.961l2.072-14.315l23.047,8.201c1.023,0.36,2.063,0.323,3.001-0.042c1.106-0.433,2.052-1.341,2.483-2.564
		C153.826,86.258,152.675,83.811,150.45,83.011z"/>
</g>
<ellipse fill="#2c3e50" cx="311.207" cy="21.226" rx="11.094" ry="11.094"/>
<path fill="#2c3e50" d="M206.785,109.257c1.744,0,3.156-1.414,3.156-3.157s-1.412-3.156-3.156-3.156H181.52c-1.095,0-2.058,0.558-2.625,1.402
	c-0.768-0.074-1.542-0.265-2.001-0.66c-0.219-0.188-0.469-0.499-0.469-1.241c0-1.375,0.213-1.58,0.729-2.076
	c1.05-1.011,2-2.204,2.155-5.383c0.831-0.567,1.377-1.522,1.377-2.605V65.292c0-1.743-1.414-3.157-3.157-3.157
	s-3.157,1.414-3.157,3.157V92.38c0,1.062,0.527,1.995,1.331,2.568c-0.102,1.905-0.547,2.335-1.051,2.821
	c-0.967,0.93-1.835,1.987-1.835,4.675c0,1.634,0.599,3.012,1.73,3.982c1.294,1.109,3.035,1.464,4.444,1.547
	c0.574,0.773,1.488,1.283,2.528,1.283h10.372v15.658c-5.521,0.352-10.629,2.323-11.131,5.792c-0.589,0.495-0.972,1.228-0.972,2.059
	c0,1.492,1.208,2.699,2.699,2.699s2.7-1.207,2.7-2.699c0-0.707-0.278-1.346-0.723-1.827c0.619-0.778,3.146-2.108,7.428-2.412v2.243
	c-0.546,0.494-0.896,1.2-0.896,1.996c0,1.492,1.208,2.699,2.7,2.699c1.49,0,2.699-1.207,2.699-2.699c0-0.795-0.35-1.501-0.895-1.995
	v-2.244c4.282,0.304,6.807,1.633,7.426,2.412c-0.443,0.481-0.723,1.119-0.723,1.827c0,1.492,1.209,2.699,2.699,2.699
	s2.699-1.207,2.699-2.699c0-0.831-0.383-1.562-0.971-2.058c-0.502-3.47-5.609-5.441-11.131-5.793v-15.658H206.785z"/>
<path fill="#2c3e50" d="M278.967,86.197h-41.389c-1.744,0-3.158,1.413-3.158,3.156s1.414,3.157,3.158,3.157h21.445l9.828,36.322h-22.68
	c-1.744,0-3.156,1.413-3.156,3.156s1.412,3.157,3.156,3.157h26.805c0.982,0,1.908-0.458,2.506-1.238s0.797-1.795,0.541-2.743
	L265.564,92.51h13.402c1.744,0,3.156-1.414,3.156-3.157S280.711,86.197,278.967,86.197z"/>
<g>
	<path fill="#2c3e50" d="M239.076,60.613c5.539,0,10.023-4.485,10.023-10.021c0-5.535-4.484-10.022-10.023-10.022
		c-5.535,0-10.02,4.487-10.02,10.022C229.057,56.127,233.541,60.613,239.076,60.613z"/>
	<path fill="#2c3e50" d="M258.998,73.522l-15.791-0.105L229.52,60.181c-0.023-0.023-0.051-0.039-0.074-0.062c-3.352-3.228-8.672-3.429-12.266-0.329
		l-28.85,24.905c-3.811,3.287-4.233,9.041-0.944,12.851c1.059,1.225,2.375,2.089,3.794,2.604c0.567,0.253,1.178,0.422,1.818,0.469
		l0.183,0.013c0.263,0.032,0.523,0.047,0.788,0.057l26.794,1.935l-10.727,20.557c-1.398,2.677-0.357,5.979,2.318,7.374
		c0.809,0.423,1.674,0.622,2.523,0.622c1.971,0,3.875-1.069,4.85-2.938l4.146-7.945l-0.018,9.618
		c-0.008,3.021,2.436,5.473,5.455,5.478c0.912,0.002,1.771-0.219,2.525-0.611c1.75-0.91,2.947-2.736,2.951-4.845l0.059-31.288
		c0.195-1.2-0.004-2.448-0.611-3.54c-0.896-1.609-2.543-2.656-4.381-2.788l-20.732-1.496l19.199-16.571l8.471,8.213
		c1.107,1.072,2.592,1.596,4.078,1.521l18.363,0.108c3,0.017,5.387-2.335,5.316-5.253C264.486,75.92,262,73.542,258.998,73.522z"/>
</g>
<path fill="#2c3e50" d="M344.215,51.445l-15.779-0.529l-13.328-13.598c-0.023-0.023-0.051-0.04-0.072-0.063l-0.006,0.041
	c-1.256-1.178-2.916-1.902-4.744-1.902c-3.91,0-7.076,3.28-7.076,7.327V62c0,9.447-0.615,10.893-0.615,10.893h0.008
	c-0.484,1.23-0.764,2.618-0.764,4.092c0,2.763,0.963,5.23,2.473,6.897v46.173c0,3.73,2.924,6.755,6.527,6.755
	c3.605,0,6.525-3.024,6.525-6.755V74.758v-3.247V55.265l4.418,4.52c1.076,1.101,2.547,1.665,4.035,1.63l18.354,0.6
	c3,0.097,5.447-2.189,5.455-5.108C349.639,53.99,347.215,51.546,344.215,51.445z"/>
<path fill="#2c3e50" d="M383.416,64.092h-11.57l6.588-31.243c0.555-0.532,0.904-1.276,0.904-2.107c0-1.617-1.311-2.924-2.926-2.924
	c-0.631,0-1.211,0.205-1.689,0.543h-5.553l0.484-14.667c0.057-1.742-1.309-3.202-3.053-3.259c-1.738-0.04-3.201,1.309-3.258,3.051
	l-0.988,29.921c-0.057,1.742,1.309,3.202,3.051,3.259c0.035,0,0.07,0.001,0.107,0.001c1.695,0,3.096-1.346,3.152-3.053l0.385-11.646
	h4.715c0.209,0.452,0.529,0.839,0.928,1.13l-6.535,30.993h-5.139v-3.811c0-0.997-0.809-1.804-1.805-1.804
	c-0.043,0-0.084,0.01-0.127,0.013c-0.25-0.024-0.508-0.001-0.76,0.085l-11.707,4.047c-0.666,0.231-1.104,0.815-1.191,1.469h-11.6
	c-1.742,0-3.156,1.414-3.156,3.157s1.414,3.157,3.156,3.157h18.936l-10.854,51.459c-3.104,0.948-5.379,3.775-5.51,7.162h-6.18
	c-1.744,0-3.156,1.414-3.156,3.157s1.412,3.156,3.156,3.156h36.793c1.744,0,3.156-1.413,3.156-3.156s-1.412-3.157-3.156-3.157
	h-15.023c-0.104-2.722-1.596-5.078-3.789-6.392l11.016-52.229h22.197c1.742,0,3.156-1.414,3.156-3.157
	S385.158,64.092,383.416,64.092z M359.412,62.71v1.382h-3.996L359.412,62.71z"/>
<g>
	<circle fill="#2c3e50" cx="47.503" cy="106.215" r="8.799"/>
	<path fill="#2c3e50" d="M36.61,127.504l1.577,5.357c0.496,1.689,2.042,2.784,3.719,2.784c0.363,0,0.732-0.052,1.098-0.158
		c2.055-0.604,3.229-2.761,2.624-4.816L42.08,118.62c-0.112-0.381-0.278-0.73-0.485-1.044c-0.942-3.624-4.226-6.303-8.143-6.303
		H23.084c-4.652,0-8.424,3.772-8.424,8.425c0,1.545,0.423,2.989,1.15,4.234c0.013,0.193,0.036,0.387,0.079,0.582l0.709,3.202h-2.871
		c-2.142,0-3.878,1.736-3.878,3.878s1.736,3.878,3.878,3.878h7.704c1.177,0,2.288-0.533,3.025-1.45
		c0.737-0.919,1.016-2.118,0.761-3.269l-0.584-2.633h8.819C34.569,128.122,35.633,127.9,36.61,127.504z"/>
</g>
<g>
	<defs>
		<rect id="SVGID_1_" x="4.193" y="148.278" width="388.301" height="9.064"/>
	</defs>
	<clipPath id="SVGID_2_">
		<use xlink:href="#SVGID_1_"  overflow="visible"/>
	</clipPath>
	<path clip-path="url(#SVGID_2_)" fill="#2c3e50" d="M4.902,157.535c-0.498,0-0.902-0.403-0.902-0.901v-7.648
		c0-0.498,0.404-0.901,0.902-0.901s0.902,0.403,0.902,0.901v7.648C5.804,157.132,5.4,157.535,4.902,157.535z"/>
	<path clip-path="url(#SVGID_2_)" fill="#2c3e50" d="M46.354,157.535c-0.499,0-0.902-0.403-0.902-0.901v-7.648
		c0-0.498,0.404-0.901,0.902-0.901c0.498,0,0.902,0.403,0.902,0.901v7.648C47.256,157.132,46.852,157.535,46.354,157.535z"/>
	<path clip-path="url(#SVGID_2_)" fill="#2c3e50" d="M212.162,157.535c-0.498,0-0.902-0.403-0.902-0.901v-7.648
		c0-0.498,0.404-0.901,0.902-0.901s0.902,0.403,0.902,0.901v7.648C213.064,157.132,212.66,157.535,212.162,157.535z"/>
	<path clip-path="url(#SVGID_2_)" fill="#2c3e50" d="M87.805,157.535c-0.498,0-0.902-0.403-0.902-0.901v-7.648
		c0-0.498,0.404-0.901,0.902-0.901s0.902,0.403,0.902,0.901v7.648C88.707,157.132,88.303,157.535,87.805,157.535z"/>
	<path clip-path="url(#SVGID_2_)" fill="#2c3e50" d="M253.613,157.535c-0.498,0-0.902-0.403-0.902-0.901v-7.648
		c0-0.498,0.404-0.901,0.902-0.901s0.902,0.403,0.902,0.901v7.648C254.516,157.132,254.111,157.535,253.613,157.535z"/>
	<path clip-path="url(#SVGID_2_)" fill="#2c3e50" d="M129.257,157.535c-0.498,0-0.902-0.403-0.902-0.901v-7.648
		c0-0.498,0.404-0.901,0.902-0.901s0.902,0.403,0.902,0.901v7.648C130.159,157.132,129.755,157.535,129.257,157.535z"/>
	<path clip-path="url(#SVGID_2_)" fill="#2c3e50" d="M295.064,157.535c-0.498,0-0.902-0.403-0.902-0.901v-7.648
		c0-0.498,0.404-0.901,0.902-0.901s0.902,0.403,0.902,0.901v7.648C295.967,157.132,295.562,157.535,295.064,157.535z"/>
	<path clip-path="url(#SVGID_2_)" fill="#2c3e50" d="M170.709,157.535c-0.499,0-0.902-0.403-0.902-0.901v-7.648
		c0-0.498,0.404-0.901,0.902-0.901c0.498,0,0.902,0.403,0.902,0.901v7.648C171.611,157.132,171.208,157.535,170.709,157.535z"/>
</g>
<path fill="#2c3e50" d="M177.617,155.668c-0.249,0-0.451-0.201-0.451-0.45v-4.815c0-0.249,0.202-0.45,0.451-0.45
	c0.25,0,0.451,0.201,0.451,0.45v4.815C178.068,155.467,177.867,155.668,177.617,155.668z"/>
<path fill="#2c3e50" d="M136.166,155.668c-0.249,0-0.451-0.201-0.451-0.45v-4.815c0-0.249,0.202-0.45,0.451-0.45
	c0.25,0,0.451,0.201,0.451,0.45v4.815C136.617,155.467,136.415,155.668,136.166,155.668z"/>
<path fill="#2c3e50" d="M94.714,155.668c-0.25,0-0.451-0.201-0.451-0.45v-4.815c0-0.249,0.202-0.45,0.451-0.45
	c0.249,0,0.451,0.201,0.451,0.45v4.815C95.165,155.467,94.963,155.668,94.714,155.668z"/>
<path fill="#2c3e50" d="M53.262,155.668c-0.25,0-0.451-0.201-0.451-0.45v-4.815c0-0.249,0.202-0.45,0.451-0.45
	c0.249,0,0.451,0.201,0.451,0.45v4.815C53.713,155.467,53.511,155.668,53.262,155.668z"/>
<path fill="#2c3e50" d="M11.81,155.668c-0.249,0-0.451-0.201-0.451-0.45v-4.815c0-0.249,0.202-0.45,0.451-0.45
	c0.25,0,0.451,0.201,0.451,0.45v4.815C12.261,155.467,12.06,155.668,11.81,155.668z"/>
<path fill="#2c3e50" d="M219.07,155.668c-0.25,0-0.451-0.201-0.451-0.45v-4.815c0-0.249,0.201-0.45,0.451-0.45
	s0.451,0.201,0.451,0.45v4.815C219.521,155.467,219.32,155.668,219.07,155.668z"/>
<path fill="#2c3e50" d="M260.521,155.668c-0.25,0-0.451-0.201-0.451-0.45v-4.815c0-0.249,0.201-0.45,0.451-0.45
	c0.248,0,0.451,0.201,0.451,0.45v4.815C260.973,155.467,260.77,155.668,260.521,155.668z"/>
<path fill="#2c3e50" d="M301.975,155.668c-0.25,0-0.451-0.201-0.451-0.45v-4.815c0-0.249,0.201-0.45,0.451-0.45
	s0.451,0.201,0.451,0.45v4.815C302.426,155.467,302.225,155.668,301.975,155.668z"/>
<path fill="#2c3e50" d="M350.334,155.668c-0.25,0-0.451-0.201-0.451-0.45v-4.815c0-0.249,0.201-0.45,0.451-0.45
	s0.451,0.201,0.451,0.45v4.815C350.785,155.467,350.584,155.668,350.334,155.668z"/>
<path fill="#2c3e50" d="M336.516,155.668c-0.248,0-0.449-0.201-0.449-0.45v-4.815c0-0.249,0.201-0.45,0.449-0.45
	c0.25,0,0.451,0.201,0.451,0.45v4.815C336.967,155.467,336.766,155.668,336.516,155.668z"/>
<path fill="#2c3e50" d="M384.879,155.668c-0.25,0-0.451-0.201-0.451-0.45v-4.815c0-0.249,0.201-0.45,0.451-0.45
	c0.248,0,0.451,0.201,0.451,0.45v4.815C385.33,155.467,385.127,155.668,384.879,155.668z"/>
<path fill="#2c3e50" d="M184.526,155.668c-0.248,0-0.451-0.201-0.451-0.45v-4.815c0-0.249,0.203-0.45,0.451-0.45
	c0.25,0,0.451,0.201,0.451,0.45v4.815C184.978,155.467,184.777,155.668,184.526,155.668z"/>
<path fill="#2c3e50" d="M143.075,155.668c-0.25,0-0.451-0.201-0.451-0.45v-4.815c0-0.249,0.202-0.45,0.451-0.45
	c0.249,0,0.451,0.201,0.451,0.45v4.815C143.526,155.467,143.324,155.668,143.075,155.668z"/>
<path fill="#2c3e50" d="M101.623,155.668c-0.25,0-0.451-0.201-0.451-0.45v-4.815c0-0.249,0.202-0.45,0.451-0.45
	c0.249,0,0.451,0.201,0.451,0.45v4.815C102.074,155.467,101.872,155.668,101.623,155.668z"/>
<path fill="#2c3e50" d="M60.171,155.668c-0.249,0-0.451-0.201-0.451-0.45v-4.815c0-0.249,0.202-0.45,0.451-0.45
	c0.25,0,0.451,0.201,0.451,0.45v4.815C60.622,155.467,60.42,155.668,60.171,155.668z"/>
<path fill="#2c3e50" d="M18.719,155.668c-0.249,0-0.451-0.201-0.451-0.45v-4.815c0-0.249,0.202-0.45,0.451-0.45
	c0.25,0,0.451,0.201,0.451,0.45v4.815C19.17,155.467,18.968,155.668,18.719,155.668z"/>
<path fill="#2c3e50" d="M225.979,155.668c-0.25,0-0.451-0.201-0.451-0.45v-4.815c0-0.249,0.201-0.45,0.451-0.45
	s0.451,0.201,0.451,0.45v4.815C226.43,155.467,226.229,155.668,225.979,155.668z"/>
<path fill="#2c3e50" d="M267.43,155.668c-0.248,0-0.451-0.201-0.451-0.45v-4.815c0-0.249,0.203-0.45,0.451-0.45
	c0.25,0,0.451,0.201,0.451,0.45v4.815C267.881,155.467,267.68,155.668,267.43,155.668z"/>
<path fill="#2c3e50" d="M357.242,155.668c-0.248,0-0.451-0.201-0.451-0.45v-4.815c0-0.249,0.203-0.45,0.451-0.45
	c0.25,0,0.451,0.201,0.451,0.45v4.815C357.693,155.467,357.492,155.668,357.242,155.668z"/>
<path fill="#2c3e50" d="M191.436,155.668c-0.25,0-0.451-0.201-0.451-0.45v-4.815c0-0.249,0.201-0.45,0.451-0.45
	c0.249,0,0.451,0.201,0.451,0.45v4.815C191.887,155.467,191.684,155.668,191.436,155.668z"/>
<path fill="#2c3e50" d="M308.883,155.668c-0.25,0-0.451-0.201-0.451-0.45v-4.815c0-0.249,0.201-0.45,0.451-0.45
	s0.451,0.201,0.451,0.45v4.815C309.334,155.467,309.133,155.668,308.883,155.668z"/>
<path fill="#2c3e50" d="M149.983,155.668c-0.25,0-0.451-0.201-0.451-0.45v-4.815c0-0.249,0.202-0.45,0.451-0.45
	c0.249,0,0.451,0.201,0.451,0.45v4.815C150.434,155.467,150.232,155.668,149.983,155.668z"/>
<path fill="#2c3e50" d="M108.531,155.668c-0.25,0-0.451-0.201-0.451-0.45v-4.815c0-0.249,0.202-0.45,0.451-0.45
	c0.249,0,0.451,0.201,0.451,0.45v4.815C108.982,155.467,108.78,155.668,108.531,155.668z"/>
<path fill="#2c3e50" d="M67.08,155.668c-0.249,0-0.451-0.201-0.451-0.45v-4.815c0-0.249,0.202-0.45,0.451-0.45
	c0.25,0,0.451,0.201,0.451,0.45v4.815C67.531,155.467,67.33,155.668,67.08,155.668z"/>
<path fill="#2c3e50" d="M25.627,155.668c-0.249,0-0.451-0.201-0.451-0.45v-4.815c0-0.249,0.202-0.45,0.451-0.45
	c0.25,0,0.451,0.201,0.451,0.45v4.815C26.078,155.467,25.876,155.668,25.627,155.668z"/>
<path fill="#2c3e50" d="M232.889,155.668c-0.25,0-0.451-0.201-0.451-0.45v-4.815c0-0.249,0.201-0.45,0.451-0.45
	c0.248,0,0.451,0.201,0.451,0.45v4.815C233.34,155.467,233.137,155.668,232.889,155.668z"/>
<path fill="#2c3e50" d="M274.338,155.668c-0.248,0-0.451-0.201-0.451-0.45v-4.815c0-0.249,0.203-0.45,0.451-0.45
	c0.25,0,0.451,0.201,0.451,0.45v4.815C274.789,155.467,274.588,155.668,274.338,155.668z"/>
<path fill="#2c3e50" d="M315.791,155.668c-0.248,0-0.449-0.201-0.449-0.45v-4.815c0-0.249,0.201-0.45,0.449-0.45
	c0.25,0,0.451,0.201,0.451,0.45v4.815C316.242,155.467,316.041,155.668,315.791,155.668z"/>
<path fill="#2c3e50" d="M364.152,155.668c-0.25,0-0.451-0.201-0.451-0.45v-4.815c0-0.249,0.201-0.45,0.451-0.45
	c0.248,0,0.451,0.201,0.451,0.45v4.815C364.604,155.467,364.4,155.668,364.152,155.668z"/>
<path fill="#2c3e50" d="M198.343,155.668c-0.249,0-0.45-0.201-0.45-0.45v-4.815c0-0.249,0.201-0.45,0.45-0.45
	c0.25,0,0.452,0.201,0.452,0.45v4.815C198.795,155.467,198.594,155.668,198.343,155.668z"/>
<path fill="#2c3e50" d="M156.893,155.668c-0.25,0-0.451-0.201-0.451-0.45v-4.815c0-0.249,0.202-0.45,0.451-0.45
	c0.249,0,0.451,0.201,0.451,0.45v4.815C157.343,155.467,157.142,155.668,156.893,155.668z"/>
<path fill="#2c3e50" d="M115.44,155.668c-0.249,0-0.451-0.201-0.451-0.45v-4.815c0-0.249,0.202-0.45,0.451-0.45
	c0.25,0,0.451,0.201,0.451,0.45v4.815C115.891,155.467,115.689,155.668,115.44,155.668z"/>
<path fill="#2c3e50" d="M73.989,155.668c-0.249,0-0.451-0.201-0.451-0.45v-4.815c0-0.249,0.202-0.45,0.451-0.45
	s0.451,0.201,0.451,0.45v4.815C74.44,155.467,74.238,155.668,73.989,155.668z"/>
<path fill="#2c3e50" d="M32.536,155.668c-0.25,0-0.451-0.201-0.451-0.45v-4.815c0-0.249,0.202-0.45,0.451-0.45
	c0.249,0,0.451,0.201,0.451,0.45v4.815C32.987,155.467,32.785,155.668,32.536,155.668z"/>
<path fill="#2c3e50" d="M239.797,155.668c-0.25,0-0.451-0.201-0.451-0.45v-4.815c0-0.249,0.201-0.45,0.451-0.45
	c0.248,0,0.451,0.201,0.451,0.45v4.815C240.248,155.467,240.045,155.668,239.797,155.668z"/>
<path fill="#2c3e50" d="M281.246,155.668c-0.248,0-0.451-0.201-0.451-0.45v-4.815c0-0.249,0.203-0.45,0.451-0.45
	c0.25,0,0.451,0.201,0.451,0.45v4.815C281.697,155.467,281.496,155.668,281.246,155.668z"/>
<path fill="#2c3e50" d="M322.699,155.668c-0.25,0-0.451-0.201-0.451-0.45v-4.815c0-0.249,0.201-0.45,0.451-0.45
	s0.451,0.201,0.451,0.45v4.815C323.15,155.467,322.949,155.668,322.699,155.668z"/>
<path fill="#2c3e50" d="M371.061,155.668c-0.25,0-0.451-0.201-0.451-0.45v-4.815c0-0.249,0.201-0.45,0.451-0.45
	c0.248,0,0.451,0.201,0.451,0.45v4.815C371.512,155.467,371.309,155.668,371.061,155.668z"/>
<path fill="#2c3e50" d="M205.252,155.668c-0.248,0-0.449-0.201-0.449-0.45v-4.815c0-0.249,0.201-0.45,0.449-0.45
	c0.25,0,0.451,0.201,0.451,0.45v4.815C205.703,155.467,205.502,155.668,205.252,155.668z"/>
<path fill="#2c3e50" d="M163.801,155.668c-0.25,0-0.451-0.201-0.451-0.45v-4.815c0-0.249,0.202-0.45,0.451-0.45
	c0.249,0,0.451,0.201,0.451,0.45v4.815C164.251,155.467,164.05,155.668,163.801,155.668z"/>
<path fill="#2c3e50" d="M122.349,155.668c-0.249,0-0.451-0.201-0.451-0.45v-4.815c0-0.249,0.202-0.45,0.451-0.45
	c0.25,0,0.451,0.201,0.451,0.45v4.815C122.8,155.467,122.599,155.668,122.349,155.668z"/>
<path fill="#2c3e50" d="M80.896,155.668c-0.249,0-0.451-0.201-0.451-0.45v-4.815c0-0.249,0.202-0.45,0.451-0.45
	c0.25,0,0.451,0.201,0.451,0.45v4.815C81.348,155.467,81.146,155.668,80.896,155.668z"/>
<path fill="#2c3e50" d="M39.445,155.668c-0.25,0-0.451-0.201-0.451-0.45v-4.815c0-0.249,0.202-0.45,0.451-0.45
	c0.249,0,0.451,0.201,0.451,0.45v4.815C39.896,155.467,39.694,155.668,39.445,155.668z"/>
<path fill="#2c3e50" d="M246.705,155.668c-0.25,0-0.451-0.201-0.451-0.45v-4.815c0-0.249,0.201-0.45,0.451-0.45
	c0.248,0,0.451,0.201,0.451,0.45v4.815C247.156,155.467,246.953,155.668,246.705,155.668z"/>
<path fill="#2c3e50" d="M288.156,155.668c-0.25,0-0.451-0.201-0.451-0.45v-4.815c0-0.249,0.201-0.45,0.451-0.45
	s0.451,0.201,0.451,0.45v4.815C288.607,155.467,288.406,155.668,288.156,155.668z"/>
<path fill="#2c3e50" d="M329.607,155.668c-0.248,0-0.449-0.201-0.449-0.45v-4.815c0-0.249,0.201-0.45,0.449-0.45
	c0.25,0,0.451,0.201,0.451,0.45v4.815C330.059,155.467,329.857,155.668,329.607,155.668z"/>
<path fill="#2c3e50" d="M377.971,155.668c-0.25,0-0.451-0.201-0.451-0.45v-4.815c0-0.249,0.201-0.45,0.451-0.45
	c0.248,0,0.451,0.201,0.451,0.45v4.815C378.422,155.467,378.219,155.668,377.971,155.668z"/>
<g>
	<defs>
		<rect id="SVGID_3_" x="4.193" y="148.278" width="388.301" height="9.064"/>
	</defs>
	<clipPath id="SVGID_4_">
		<use xlink:href="#SVGID_3_"  overflow="visible"/>
	</clipPath>
	<path clip-path="url(#SVGID_4_)" fill="#2c3e50" d="M343.426,157.535c-0.498,0-0.9-0.403-0.9-0.901v-7.648
		c0-0.498,0.402-0.901,0.9-0.901c0.5,0,0.902,0.403,0.902,0.901v7.648C344.328,157.132,343.926,157.535,343.426,157.535z"/>
	<path clip-path="url(#SVGID_4_)" fill="#2c3e50" d="M391.785,157.535c-0.498,0-0.902-0.403-0.902-0.901v-7.648
		c0-0.498,0.404-0.901,0.902-0.901s0.902,0.403,0.902,0.901v7.648C392.688,157.132,392.283,157.535,391.785,157.535z"/>
</g>
</svg>
