<?xml version="1.0" encoding="utf-8"?>
<!-- Generator: Adobe Illustrator 16.0.4, SVG Export Plug-In . SVG Version: 6.00 Build 0)  -->
<!DOCTYPE svg PUBLIC "-//W3C//DTD SVG 1.1//EN" "http://www.w3.org/Graphics/SVG/1.1/DTD/svg11.dtd">
<svg version="1.1" id="Layer_1" xmlns="http://www.w3.org/2000/svg" xmlns:xlink="http://www.w3.org/1999/xlink" x="0px" y="0px"
	 width="612px" height="224.667px" viewBox="0 0 612 224.667" enable-background="new 0 0 612 224.667" xml:space="preserve">
<g>
	<path fill='#2c3e50' d="M170.304,67.748c6.933-2.705,14.749,0.724,17.455,7.659c2.707,6.935-0.722,14.749-7.655,17.454
		c-6.934,2.704-14.75-0.72-17.455-7.655C159.941,78.271,163.369,70.458,170.304,67.748z"/>
	<circle fill='#2c3e50' cx="209.783" cy="179.871" r="12.885"/>
	<path fill='#2c3e50' d="M226.404,113.581l-40.15-14.318c-0.42-0.13-0.873-0.25-1.299-0.305l-21.888-2.965c-1.096-0.161-2.188-0.032-3.214,0.37
		l-36.043,14.064c-3.328,1.301-4.937,5.023-3.65,8.325c1.301,3.328,5.027,4.936,8.323,3.648l28.554-11.145l-2.395,16.512
		l-7.971,26.488l-24.516,6.969c-3.122,0.815-5.501,3.52-5.833,6.617c-0.086,1.121,0.114,2.219,0.579,3.191
		c0.104,0.232,0.228,0.456,0.36,0.667c1.473,2.371,4.421,3.411,7.332,2.586l28.869-8.333c2.493-0.682,4.521-2.639,5.251-5.07
		l8.062-15.5l2.826-0.131l11.867,15.555l-9.834,21.941c-1.305,2.751-0.676,6.061,1.539,8.107c0.821,0.712,1.803,1.205,2.854,1.434
		c0.248,0.059,0.498,0.098,0.749,0.123c2.77,0.303,5.422-1.24,6.591-3.842l11.481-25.911c1.022-2.212,0.754-4.833-0.691-6.78
		l-9.905-20.992l3.116-21.524l34.654,12.332c1.539,0.542,3.103,0.485,4.512-0.063c1.663-0.65,3.086-2.017,3.733-3.855
		C231.48,118.462,229.75,114.783,226.404,113.581z"/>
</g>
<path fill='#2c3e50' d="M451.873,16.896c2.09-8.969,11.055-14.548,20.029-12.458c8.969,2.089,14.551,11.053,12.463,20.025
	c-2.092,8.972-11.06,14.55-20.031,12.463C455.365,34.836,449.783,25.871,451.873,16.896z"/>
<path fill='#2c3e50' d="M311.111,153.044c2.621,0,4.746-2.125,4.746-4.746s-2.125-4.748-4.746-4.748h-37.992c-1.645,0-3.093,0.838-3.945,2.109
	c-1.156-0.113-2.32-0.398-3.01-0.993c-0.328-0.284-0.704-0.751-0.704-1.866c0-2.067,0.32-2.375,1.095-3.123
	c1.581-1.52,3.009-3.313,3.242-8.092c1.25-0.855,2.071-2.291,2.071-3.918v-40.73c0-2.621-2.125-4.747-4.747-4.747
	c-2.621,0-4.746,2.126-4.746,4.747v40.73c0,1.596,0.793,2.999,2,3.86c-0.153,2.866-0.823,3.512-1.582,4.241
	c-1.454,1.398-2.759,2.99-2.759,7.031c0,2.457,0.9,4.527,2.602,5.986c1.946,1.669,4.564,2.201,6.681,2.326
	c0.865,1.164,2.238,1.929,3.8,1.929h15.596v23.544c-8.301,0.53-15.982,3.494-16.737,8.709c-0.886,0.744-1.46,1.848-1.46,3.096
	c0,2.244,1.816,4.059,4.058,4.059c2.242,0,4.059-1.814,4.059-4.059c0-1.063-0.417-2.024-1.087-2.748
	c0.931-1.17,4.73-3.17,11.168-3.627v3.373c-0.82,0.744-1.347,1.806-1.347,3.002c0,2.244,1.817,4.059,4.058,4.059
	c2.241,0,4.058-1.814,4.058-4.059c0-1.194-0.522-2.258-1.344-3v-3.375c6.438,0.457,10.236,2.455,11.168,3.627
	c-0.67,0.724-1.088,1.683-1.088,2.748c0,2.244,1.818,4.059,4.059,4.059c2.242,0,4.06-1.814,4.06-4.059
	c0-1.25-0.573-2.35-1.459-3.094c-0.756-5.217-8.437-8.181-16.737-8.711v-23.543h16.971V153.044z"/>
<path fill='#2c3e50' d="M419.643,118.37H357.41c-2.621,0-4.748,2.125-4.748,4.746c0,2.622,2.127,4.747,4.748,4.747h32.244l14.776,54.613h-34.1
	c-2.621,0-4.748,2.125-4.748,4.746s2.127,4.748,4.748,4.748h40.303c1.478,0,2.869-0.688,3.769-1.862
	c0.899-1.173,1.198-2.698,0.813-4.124l-15.727-58.121h20.151c2.621,0,4.746-2.125,4.746-4.747
	C424.389,120.496,422.264,118.37,419.643,118.37z"/>
<g>
	<path fill='#2c3e50' d="M359.664,79.902c8.326,0,15.07-6.744,15.07-15.067c0-8.323-6.744-15.069-15.07-15.069c-8.324,0-15.066,6.747-15.066,15.069
		C344.598,73.158,351.34,79.902,359.664,79.902z"/>
	<path fill='#2c3e50' d="M389.615,99.312l-23.74-0.157l-20.58-19.901c-0.037-0.035-0.078-0.059-0.111-0.093c-5.043-4.854-13.041-5.156-18.442-0.495
		l-43.381,37.446c-5.729,4.942-6.365,13.594-1.42,19.323c1.592,1.841,3.571,3.14,5.707,3.912c0.853,0.381,1.771,0.636,2.734,0.707
		l0.274,0.02c0.395,0.047,0.788,0.07,1.186,0.084l40.287,2.91L316,173.976c-2.102,4.025-0.539,8.99,3.484,11.088
		c1.217,0.636,2.518,0.935,3.797,0.935c2.963,0,5.826-1.606,7.291-4.418l6.234-11.948l-0.029,14.463
		c-0.01,4.541,3.666,8.229,8.205,8.235c1.371,0.003,2.662-0.329,3.797-0.919c2.631-1.367,4.432-4.115,4.438-7.283l0.086-47.045
		c0.295-1.806-0.004-3.683-0.918-5.324c-1.348-2.42-3.822-3.992-6.586-4.191l-31.176-2.249l28.871-24.917l12.736,12.348
		c1.664,1.612,3.896,2.4,6.133,2.289l27.608,0.163c4.513,0.022,8.099-3.511,7.994-7.898
		C397.867,102.919,394.129,99.344,389.615,99.312z"/>
</g>
<path fill='#2c3e50' d="M517.75,66.118l-23.727-0.795l-20.041-20.445c-0.035-0.035-0.076-0.06-0.109-0.095l-0.006,0.06
	c-1.89-1.771-4.385-2.859-7.133-2.859c-5.882,0-10.644,4.932-10.644,11.016v28.99c0,14.204-0.922,16.377-0.922,16.377h0.008
	c-0.729,1.851-1.146,3.938-1.146,6.153c0,4.153,1.444,7.865,3.721,10.373v69.424c0,5.609,4.395,10.156,9.811,10.156
	c5.423,0,9.812-4.547,9.812-10.156v-83.144v-4.883V71.862l6.643,6.795c1.619,1.655,3.83,2.503,6.066,2.452l27.6,0.902
	c4.507,0.146,8.188-3.292,8.199-7.682C525.904,69.944,522.262,66.27,517.75,66.118z"/>
<path fill='#2c3e50' d="M576.689,85.133h-17.396l9.906-46.977c0.834-0.8,1.356-1.918,1.356-3.167c0-2.432-1.969-4.397-4.396-4.397
	c-0.949,0-1.82,0.308-2.541,0.817h-8.353l0.729-22.054c0.088-2.62-1.967-4.812-4.586-4.9c-2.617-0.06-4.814,1.968-4.902,4.587
	l-1.481,44.99c-0.088,2.619,1.967,4.813,4.586,4.899c0.053,0.002,0.104,0.003,0.158,0.003c2.551,0,4.657-2.023,4.743-4.59
	l0.576-17.511h7.09c0.314,0.679,0.798,1.262,1.396,1.699l-9.826,46.601h-7.727v-5.73c0-1.499-1.215-2.712-2.713-2.712
	c-0.064,0-0.127,0.015-0.189,0.02c-0.377-0.037-0.766-0.002-1.145,0.128l-17.603,6.085c-1.002,0.347-1.66,1.225-1.793,2.209H505.14
	c-2.618,0-4.743,2.126-4.743,4.747c0,2.622,2.125,4.747,4.743,4.747h28.474l-16.318,77.375c-4.668,1.426-8.088,5.676-8.285,10.77
	h-9.291c-2.623,0-4.748,2.125-4.748,4.746s2.125,4.748,4.748,4.748h55.32c2.621,0,4.748-2.127,4.748-4.748s-2.127-4.746-4.748-4.746
	h-22.588c-0.158-4.092-2.4-7.635-5.699-9.609l16.562-78.534h33.375c2.623,0,4.748-2.125,4.748-4.747S579.312,85.133,576.689,85.133z
	 M540.6,83.055v2.078h-6.01L540.6,83.055z"/>
<g>
	<circle fill='#2c3e50' cx="78.762" cy="150.319" r="12.659"/>
	<path fill='#2c3e50' d="M63.088,180.952l2.269,7.707c0.714,2.433,2.939,4.007,5.351,4.007c0.523,0,1.053-0.074,1.579-0.228
		c2.957-0.87,4.646-3.972,3.775-6.93l-5.104-17.341c-0.162-0.546-0.4-1.05-0.699-1.502c-1.355-5.212-6.079-9.066-11.716-9.066
		H43.627c-6.694,0-12.121,5.428-12.121,12.121c0,2.224,0.609,4.3,1.655,6.094c0.019,0.276,0.051,0.556,0.113,0.837l1.02,4.606
		h-4.131c-3.082,0-5.58,2.498-5.58,5.579s2.498,5.581,5.58,5.581h11.085c1.693,0,3.292-0.768,4.352-2.088
		c1.06-1.322,1.463-3.047,1.095-4.703l-0.84-3.787h12.689C60.152,181.841,61.684,181.521,63.088,180.952z"/>
</g>
<g>
	<defs>
		<rect id="SVGID_1_" x="20.301" y="204.426" width="569.449" height="13.293"/>
	</defs>
	<clipPath id="SVGID_2_">
		<use xlink:href="#SVGID_1_"  overflow="visible"/>
	</clipPath>
	<path clip-path="url(#SVGID_2_)" fill="#2c3e50" d="M21.339,217.68c-0.552,0-1-0.447-1-1v-11.215c0-0.553,0.448-1,1-1s1,0.447,1,1
		v11.215C22.339,217.233,21.892,217.68,21.339,217.68z"/>
	<path clip-path="url(#SVGID_2_)" fill="#2c3e50" d="M84.381,217.68c-0.552,0-1-0.447-1-1v-11.215c0-0.553,0.448-1,1-1s1,0.447,1,1
		v11.215C85.381,217.233,84.933,217.68,84.381,217.68z"/>
	<path clip-path="url(#SVGID_2_)" fill="#2c3e50" d="M336.546,217.68c-0.553,0-1-0.447-1-1v-11.215c0-0.553,0.447-1,1-1s1,0.447,1,1
		v11.215C337.546,217.233,337.099,217.68,336.546,217.68z"/>
	<path clip-path="url(#SVGID_2_)" fill="#2c3e50" d="M147.422,217.68c-0.552,0-1-0.447-1-1v-11.215c0-0.553,0.448-1,1-1s1,0.447,1,1
		v11.215C148.422,217.233,147.974,217.68,147.422,217.68z"/>
	<path clip-path="url(#SVGID_2_)" fill="#2c3e50" d="M399.588,217.68c-0.553,0-1-0.447-1-1v-11.215c0-0.553,0.447-1,1-1s1,0.447,1,1
		v11.215C400.588,217.233,400.141,217.68,399.588,217.68z"/>
	<path clip-path="url(#SVGID_2_)" fill="#2c3e50" d="M210.463,217.68c-0.552,0-1-0.447-1-1v-11.215c0-0.553,0.448-1,1-1s1,0.447,1,1
		v11.215C211.463,217.233,211.016,217.68,210.463,217.68z"/>
	<path clip-path="url(#SVGID_2_)" fill="#2c3e50" d="M462.629,217.68c-0.553,0-1-0.447-1-1v-11.215c0-0.553,0.447-1,1-1s1,0.447,1,1
		v11.215C463.629,217.233,463.182,217.68,462.629,217.68z"/>
	<path clip-path="url(#SVGID_2_)" fill="#2c3e50" d="M273.504,217.68c-0.552,0-1-0.447-1-1v-11.215c0-0.553,0.448-1,1-1s1,0.447,1,1
		v11.215C274.504,217.233,274.057,217.68,273.504,217.68z"/>
</g>
<path fill="#2c3e50" d="M284.011,215.103c-0.276,0-0.5-0.224-0.5-0.5v-7.061c0-0.276,0.224-0.5,0.5-0.5s0.5,0.224,0.5,0.5v7.061
	C284.511,214.879,284.287,215.103,284.011,215.103z"/>
<path fill="#2c3e50" d="M220.971,215.103c-0.276,0-0.5-0.224-0.5-0.5v-7.061c0-0.276,0.224-0.5,0.5-0.5s0.5,0.224,0.5,0.5v7.061
	C221.471,214.879,221.247,215.103,220.971,215.103z"/>
<path fill="#2c3e50" d="M157.929,215.103c-0.276,0-0.5-0.224-0.5-0.5v-7.061c0-0.276,0.224-0.5,0.5-0.5s0.5,0.224,0.5,0.5v7.061
	C158.429,214.879,158.205,215.103,157.929,215.103z"/>
<path fill="#2c3e50" d="M94.888,215.103c-0.276,0-0.5-0.224-0.5-0.5v-7.061c0-0.276,0.224-0.5,0.5-0.5s0.5,0.224,0.5,0.5v7.061
	C95.388,214.879,95.164,215.103,94.888,215.103z"/>
<path fill="#2c3e50" d="M31.846,215.103c-0.276,0-0.5-0.224-0.5-0.5v-7.061c0-0.276,0.224-0.5,0.5-0.5s0.5,0.224,0.5,0.5v7.061
	C32.346,214.879,32.123,215.103,31.846,215.103z"/>
<path fill="#2c3e50" d="M347.054,215.103c-0.276,0-0.5-0.224-0.5-0.5v-7.061c0-0.276,0.224-0.5,0.5-0.5s0.5,0.224,0.5,0.5v7.061
	C347.554,214.879,347.33,215.103,347.054,215.103z"/>
<path fill="#2c3e50" d="M410.094,215.103c-0.276,0-0.5-0.224-0.5-0.5v-7.061c0-0.276,0.224-0.5,0.5-0.5s0.5,0.224,0.5,0.5v7.061
	C410.594,214.879,410.37,215.103,410.094,215.103z"/>
<path fill="#2c3e50" d="M473.136,215.103c-0.276,0-0.5-0.224-0.5-0.5v-7.061c0-0.276,0.224-0.5,0.5-0.5s0.5,0.224,0.5,0.5v7.061
	C473.636,214.879,473.412,215.103,473.136,215.103z"/>
<path fill="#2c3e50" d="M536.178,215.103c-0.276,0-0.5-0.224-0.5-0.5v-7.061c0-0.276,0.224-0.5,0.5-0.5s0.5,0.224,0.5,0.5v7.061
	C536.678,214.879,536.454,215.103,536.178,215.103z"/>
<path fill="#2c3e50" d="M515.163,215.103c-0.276,0-0.5-0.224-0.5-0.5v-7.061c0-0.276,0.224-0.5,0.5-0.5s0.5,0.224,0.5,0.5v7.061
	C515.663,214.879,515.439,215.103,515.163,215.103z"/>
<path fill="#2c3e50" d="M578.205,215.103c-0.276,0-0.5-0.224-0.5-0.5v-7.061c0-0.276,0.224-0.5,0.5-0.5s0.5,0.224,0.5,0.5v7.061
	C578.705,214.879,578.481,215.103,578.205,215.103z"/>
<path fill="#2c3e50" d="M294.519,215.103c-0.276,0-0.5-0.224-0.5-0.5v-7.061c0-0.276,0.224-0.5,0.5-0.5s0.5,0.224,0.5,0.5v7.061
	C295.019,214.879,294.795,215.103,294.519,215.103z"/>
<path fill="#2c3e50" d="M231.478,215.103c-0.276,0-0.5-0.224-0.5-0.5v-7.061c0-0.276,0.224-0.5,0.5-0.5s0.5,0.224,0.5,0.5v7.061
	C231.978,214.879,231.754,215.103,231.478,215.103z"/>
<path fill="#2c3e50" d="M168.436,215.103c-0.276,0-0.5-0.224-0.5-0.5v-7.061c0-0.276,0.224-0.5,0.5-0.5s0.5,0.224,0.5,0.5v7.061
	C168.936,214.879,168.712,215.103,168.436,215.103z"/>
<path fill="#2c3e50" d="M105.395,215.103c-0.276,0-0.5-0.224-0.5-0.5v-7.061c0-0.276,0.224-0.5,0.5-0.5s0.5,0.224,0.5,0.5v7.061
	C105.895,214.879,105.671,215.103,105.395,215.103z"/>
<path fill="#2c3e50" d="M42.353,215.103c-0.276,0-0.5-0.224-0.5-0.5v-7.061c0-0.276,0.224-0.5,0.5-0.5s0.5,0.224,0.5,0.5v7.061
	C42.853,214.879,42.629,215.103,42.353,215.103z"/>
<path fill="#2c3e50" d="M357.56,215.103c-0.276,0-0.5-0.224-0.5-0.5v-7.061c0-0.276,0.224-0.5,0.5-0.5s0.5,0.224,0.5,0.5v7.061
	C358.06,214.879,357.836,215.103,357.56,215.103z"/>
<path fill="#2c3e50" d="M420.602,215.103c-0.276,0-0.5-0.224-0.5-0.5v-7.061c0-0.276,0.224-0.5,0.5-0.5s0.5,0.224,0.5,0.5v7.061
	C421.102,214.879,420.878,215.103,420.602,215.103z"/>
<path fill="#2c3e50" d="M546.684,215.103c-0.276,0-0.5-0.224-0.5-0.5v-7.061c0-0.276,0.224-0.5,0.5-0.5s0.5,0.224,0.5,0.5v7.061
	C547.184,214.879,546.96,215.103,546.684,215.103z"/>
<path fill="#2c3e50" d="M305.025,215.103c-0.276,0-0.5-0.224-0.5-0.5v-7.061c0-0.276,0.224-0.5,0.5-0.5s0.5,0.224,0.5,0.5v7.061
	C305.525,214.879,305.302,215.103,305.025,215.103z"/>
<path fill="#2c3e50" d="M483.643,215.103c-0.276,0-0.5-0.224-0.5-0.5v-7.061c0-0.276,0.224-0.5,0.5-0.5s0.5,0.224,0.5,0.5v7.061
	C484.143,214.879,483.919,215.103,483.643,215.103z"/>
<path fill="#2c3e50" d="M241.984,215.103c-0.276,0-0.5-0.224-0.5-0.5v-7.061c0-0.276,0.224-0.5,0.5-0.5s0.5,0.224,0.5,0.5v7.061
	C242.484,214.879,242.261,215.103,241.984,215.103z"/>
<path fill="#2c3e50" d="M178.943,215.103c-0.276,0-0.5-0.224-0.5-0.5v-7.061c0-0.276,0.224-0.5,0.5-0.5s0.5,0.224,0.5,0.5v7.061
	C179.443,214.879,179.219,215.103,178.943,215.103z"/>
<path fill="#2c3e50" d="M115.901,215.103c-0.276,0-0.5-0.224-0.5-0.5v-7.061c0-0.276,0.224-0.5,0.5-0.5s0.5,0.224,0.5,0.5v7.061
	C116.401,214.879,116.178,215.103,115.901,215.103z"/>
<path fill="#2c3e50" d="M52.86,215.103c-0.276,0-0.5-0.224-0.5-0.5v-7.061c0-0.276,0.224-0.5,0.5-0.5s0.5,0.224,0.5,0.5v7.061
	C53.36,214.879,53.137,215.103,52.86,215.103z"/>
<path fill="#2c3e50" d="M368.066,215.103c-0.276,0-0.5-0.224-0.5-0.5v-7.061c0-0.276,0.224-0.5,0.5-0.5s0.5,0.224,0.5,0.5v7.061
	C368.566,214.879,368.343,215.103,368.066,215.103z"/>
<path fill="#2c3e50" d="M431.108,215.103c-0.276,0-0.5-0.224-0.5-0.5v-7.061c0-0.276,0.224-0.5,0.5-0.5s0.5,0.224,0.5,0.5v7.061
	C431.608,214.879,431.385,215.103,431.108,215.103z"/>
<path fill="#2c3e50" d="M315.532,215.103c-0.276,0-0.5-0.224-0.5-0.5v-7.061c0-0.276,0.224-0.5,0.5-0.5s0.5,0.224,0.5,0.5v7.061
	C316.032,214.879,315.809,215.103,315.532,215.103z"/>
<path fill="#2c3e50" d="M252.491,215.103c-0.276,0-0.5-0.224-0.5-0.5v-7.061c0-0.276,0.224-0.5,0.5-0.5s0.5,0.224,0.5,0.5v7.061
	C252.991,214.879,252.767,215.103,252.491,215.103z"/>
<path fill="#2c3e50" d="M189.45,215.103c-0.276,0-0.5-0.224-0.5-0.5v-7.061c0-0.276,0.224-0.5,0.5-0.5s0.5,0.224,0.5,0.5v7.061
	C189.95,214.879,189.726,215.103,189.45,215.103z"/>
<path fill="#2c3e50" d="M126.408,215.103c-0.276,0-0.5-0.224-0.5-0.5v-7.061c0-0.276,0.224-0.5,0.5-0.5s0.5,0.224,0.5,0.5v7.061
	C126.908,214.879,126.685,215.103,126.408,215.103z"/>
<path fill="#2c3e50" d="M63.367,215.103c-0.276,0-0.5-0.224-0.5-0.5v-7.061c0-0.276,0.224-0.5,0.5-0.5s0.5,0.224,0.5,0.5v7.061
	C63.867,214.879,63.644,215.103,63.367,215.103z"/>
<path fill="#2c3e50" d="M378.574,215.103c-0.276,0-0.5-0.224-0.5-0.5v-7.061c0-0.276,0.224-0.5,0.5-0.5s0.5,0.224,0.5,0.5v7.061
	C379.074,214.879,378.851,215.103,378.574,215.103z"/>
<path fill="#2c3e50" d="M441.614,215.103c-0.276,0-0.5-0.224-0.5-0.5v-7.061c0-0.276,0.224-0.5,0.5-0.5s0.5,0.224,0.5,0.5v7.061
	C442.114,214.879,441.891,215.103,441.614,215.103z"/>
<path fill="#2c3e50" d="M494.149,215.103c-0.276,0-0.5-0.224-0.5-0.5v-7.061c0-0.276,0.224-0.5,0.5-0.5s0.5,0.224,0.5,0.5v7.061
	C494.649,214.879,494.426,215.103,494.149,215.103z"/>
<path fill="#2c3e50" d="M557.191,215.103c-0.276,0-0.5-0.224-0.5-0.5v-7.061c0-0.276,0.224-0.5,0.5-0.5s0.5,0.224,0.5,0.5v7.061
	C557.691,214.879,557.468,215.103,557.191,215.103z"/>
<path fill="#2c3e50" d="M326.039,215.103c-0.276,0-0.5-0.224-0.5-0.5v-7.061c0-0.276,0.224-0.5,0.5-0.5s0.5,0.224,0.5,0.5v7.061
	C326.539,214.879,326.315,215.103,326.039,215.103z"/>
<path fill="#2c3e50" d="M262.998,215.103c-0.276,0-0.5-0.224-0.5-0.5v-7.061c0-0.276,0.224-0.5,0.5-0.5s0.5,0.224,0.5,0.5v7.061
	C263.498,214.879,263.274,215.103,262.998,215.103z"/>
<path fill="#2c3e50" d="M199.957,215.103c-0.276,0-0.5-0.224-0.5-0.5v-7.061c0-0.276,0.224-0.5,0.5-0.5s0.5,0.224,0.5,0.5v7.061
	C200.457,214.879,200.233,215.103,199.957,215.103z"/>
<path fill="#2c3e50" d="M136.915,215.103c-0.276,0-0.5-0.224-0.5-0.5v-7.061c0-0.276,0.224-0.5,0.5-0.5s0.5,0.224,0.5,0.5v7.061
	C137.415,214.879,137.191,215.103,136.915,215.103z"/>
<path fill="#2c3e50" d="M73.874,215.103c-0.276,0-0.5-0.224-0.5-0.5v-7.061c0-0.276,0.224-0.5,0.5-0.5s0.5,0.224,0.5,0.5v7.061
	C74.374,214.879,74.15,215.103,73.874,215.103z"/>
<path fill="#2c3e50" d="M389.081,215.103c-0.276,0-0.5-0.224-0.5-0.5v-7.061c0-0.276,0.224-0.5,0.5-0.5s0.5,0.224,0.5,0.5v7.061
	C389.581,214.879,389.357,215.103,389.081,215.103z"/>
<path fill="#2c3e50" d="M452.122,215.103c-0.276,0-0.5-0.224-0.5-0.5v-7.061c0-0.276,0.224-0.5,0.5-0.5s0.5,0.224,0.5,0.5v7.061
	C452.622,214.879,452.398,215.103,452.122,215.103z"/>
<path fill="#2c3e50" d="M504.657,215.103c-0.276,0-0.5-0.224-0.5-0.5v-7.061c0-0.276,0.224-0.5,0.5-0.5s0.5,0.224,0.5,0.5v7.061
	C505.157,214.879,504.934,215.103,504.657,215.103z"/>
<path fill="#2c3e50" d="M567.697,215.103c-0.276,0-0.5-0.224-0.5-0.5v-7.061c0-0.276,0.224-0.5,0.5-0.5s0.5,0.224,0.5,0.5v7.061
	C568.197,214.879,567.974,215.103,567.697,215.103z"/>
<g>
	<defs>
		<rect id="SVGID_3_" x="20.301" y="204.426" width="569.449" height="13.293"/>
	</defs>
	<clipPath id="SVGID_4_">
		<use xlink:href="#SVGID_3_"  overflow="visible"/>
	</clipPath>
	<path clip-path="url(#SVGID_4_)" fill="#2c3e50" d="M525.67,217.68c-0.553,0-1-0.447-1-1v-11.215c0-0.553,0.447-1,1-1s1,0.447,1,1
		v11.215C526.67,217.233,526.223,217.68,525.67,217.68z"/>
	<path clip-path="url(#SVGID_4_)" fill="#2c3e50" d="M588.711,217.68c-0.553,0-1-0.447-1-1v-11.215c0-0.553,0.447-1,1-1s1,0.447,1,1
		v11.215C589.711,217.233,589.264,217.68,588.711,217.68z"/>
</g>
</svg>
