<?xml version="1.0" encoding="utf-8"?>
<!-- Generator: Adobe Illustrator 16.0.4, SVG Export Plug-In . SVG Version: 6.00 Build 0)  -->
<!DOCTYPE svg PUBLIC "-//W3C//DTD SVG 1.1//EN" "http://www.w3.org/Graphics/SVG/1.1/DTD/svg11.dtd">
<svg version="1.1" id="Layer_1" xmlns="http://www.w3.org/2000/svg" xmlns:xlink="http://www.w3.org/1999/xlink" x="0px" y="0px"
	 width="612px" height="224.667px" viewBox="0 0 612 224.667" enable-background="new 0 0 612 224.667" xml:space="preserve">
<g>
	<path fill="#2c3e50" d="M185.304,65.361c6.933-2.705,14.749,0.724,17.455,7.659c2.707,6.935-0.722,14.749-7.655,17.454
		c-6.934,2.704-14.75-0.72-17.455-7.655C174.941,75.884,178.369,68.071,185.304,65.361z"/>
	<circle fill="#2c3e50" cx="224.783" cy="177.484" r="12.885"/>
	<path fill="#2c3e50" d="M241.404,111.194l-40.15-14.318c-0.42-0.13-0.873-0.25-1.299-0.305l-21.888-2.965c-1.096-0.161-2.188-0.032-3.214,0.37
		l-36.043,14.064c-3.328,1.301-4.937,5.023-3.65,8.324c1.301,3.329,5.027,4.937,8.323,3.649l28.554-11.145l-2.395,16.512
		l-7.971,26.488l-24.516,6.97c-3.122,0.815-5.501,3.519-5.833,6.617c-0.086,1.12,0.114,2.219,0.579,3.191
		c0.104,0.233,0.228,0.456,0.36,0.667c1.473,2.371,4.421,3.411,7.332,2.586l28.869-8.333c2.493-0.682,4.521-2.639,5.251-5.071
		l8.062-15.5l2.826-0.13l11.867,15.555l-9.834,21.941c-1.305,2.751-0.676,6.06,1.539,8.108c0.821,0.711,1.803,1.204,2.854,1.433
		c0.248,0.058,0.498,0.098,0.749,0.123c2.77,0.303,5.422-1.241,6.591-3.842l11.481-25.911c1.022-2.212,0.754-4.833-0.691-6.781
		l-9.905-20.991l3.116-21.525l34.654,12.332c1.539,0.542,3.103,0.485,4.512-0.063c1.663-0.65,3.086-2.017,3.733-3.856
		C246.48,116.076,244.75,112.396,241.404,111.194z"/>
</g>
<path fill="#2c3e50" d="M466.873,14.51c2.09-8.969,11.055-14.548,20.029-12.458c8.969,2.089,14.551,11.053,12.463,20.025
	c-2.092,8.972-11.059,14.55-20.031,12.463C470.365,32.449,464.783,23.484,466.873,14.51z"/>
<g>
	<path fill="#2c3e50" d="M81.173,163.724c7.825,0,14.169-6.344,14.169-14.17c0-4.755-2.352-8.954-5.946-11.524c1.719-1.04,3.117-2.925,4.005-4.005
		c-4.741,3.103-3.911-4.177-11.059,1.42c-0.386-0.032-0.775-0.06-1.17-0.06c-7.825,0-14.169,6.343-14.169,14.169
		C67.004,157.379,73.348,163.724,81.173,163.724z"/>
	<path fill="#2c3e50" d="M90.838,178.548h-5.63l-10.603-12.667c-0.375-0.375-0.751-0.751-1.126-1.032c-2.628-2.345-6.006-3.753-9.759-3.753H51.103
		c-0.062-0.047-0.115-0.101-0.177-0.147c-5.803-4.341-14.082-3.082-18.491,2.813c-3.107,4.155-3.452,9.498-1.359,13.812
		l-0.949,0.975H18.585c-3.19,0-5.911,2.628-5.911,5.912c0,3.191,2.627,5.912,5.911,5.912h13.981c1.876,0,3.473-0.845,4.598-2.159
		l2.056-2.057c2.274,2.643,5.405,4.279,8.864,4.279c0.363,0,0.721-0.028,1.076-0.064h14.653c4.035,0,7.789-1.689,10.416-4.41
		l1.689,2.063c1.125,1.408,2.814,2.159,4.504,2.347c0.093,0,0.281,0,0.375,0s0.282,0,0.375,0h9.665c3.191,0,5.912-2.627,5.912-5.912
		C96.657,181.177,94.029,178.548,90.838,178.548z"/>
</g>
<path fill="#2c3e50" d="M326.111,150.657c2.621,0,4.746-2.125,4.746-4.746s-2.125-4.747-4.746-4.747h-37.992c-1.645,0-3.093,0.838-3.945,2.109
	c-1.156-0.113-2.32-0.398-3.01-0.993c-0.328-0.284-0.704-0.751-0.704-1.867c0-2.067,0.32-2.375,1.095-3.122
	c1.581-1.52,3.009-3.314,3.242-8.093c1.25-0.854,2.071-2.29,2.071-3.917v-40.73c0-2.621-2.125-4.747-4.747-4.747
	c-2.621,0-4.746,2.126-4.746,4.747v40.73c0,1.596,0.793,2.999,2,3.86c-0.153,2.866-0.823,3.512-1.582,4.242
	c-1.454,1.398-2.759,2.989-2.759,7.03c0,2.457,0.9,4.528,2.602,5.987c1.946,1.669,4.564,2.201,6.681,2.326
	c0.865,1.164,2.238,1.929,3.8,1.929h15.596v23.544c-8.301,0.53-15.982,3.494-16.737,8.709c-0.886,0.744-1.46,1.847-1.46,3.095
	c0,2.244,1.816,4.059,4.058,4.059s4.059-1.815,4.059-4.059c0-1.063-0.417-2.024-1.087-2.747c0.931-1.171,4.73-3.17,11.168-3.627
	v3.373c-0.82,0.743-1.347,1.805-1.347,3.001c0,2.244,1.817,4.059,4.058,4.059s4.058-1.815,4.058-4.059c0-1.194-0.523-2.257-1.344-3
	v-3.374c6.438,0.457,10.236,2.455,11.168,3.627c-0.67,0.723-1.088,1.682-1.088,2.747c0,2.244,1.818,4.059,4.059,4.059
	c2.242,0,4.059-1.815,4.059-4.059c0-1.249-0.574-2.349-1.459-3.093c-0.756-5.217-8.436-8.181-16.738-8.711v-23.544H326.111z"/>
<path fill="#2c3e50" d="M434.643,115.983H372.41c-2.621,0-4.748,2.125-4.748,4.746c0,2.622,2.127,4.747,4.748,4.747h32.244l14.777,54.614h-34.1
	c-2.621,0-4.748,2.125-4.748,4.746s2.127,4.747,4.748,4.747h40.303c1.477,0,2.869-0.688,3.768-1.862
	c0.9-1.173,1.199-2.698,0.814-4.124l-15.727-58.121h20.152c2.621,0,4.746-2.125,4.746-4.747
	C439.389,118.109,437.264,115.983,434.643,115.983z"/>
<g>
	<path fill="#2c3e50" d="M374.664,77.515c8.326,0,15.07-6.744,15.07-15.067c0-8.323-6.744-15.069-15.07-15.069c-8.324,0-15.066,6.747-15.066,15.069
		C359.598,70.771,366.34,77.515,374.664,77.515z"/>
	<path fill="#2c3e50" d="M404.615,96.925l-23.74-0.157l-20.58-19.901c-0.037-0.035-0.078-0.059-0.111-0.093c-5.043-4.854-13.041-5.156-18.443-0.495
		l-43.381,37.446c-5.729,4.943-6.365,13.594-1.42,19.323c1.592,1.841,3.571,3.14,5.707,3.913c0.853,0.381,1.771,0.635,2.734,0.706
		l0.274,0.02c0.395,0.047,0.788,0.07,1.186,0.084l40.287,2.91L331,171.589c-2.102,4.025-0.539,8.99,3.484,11.088
		c1.217,0.636,2.518,0.935,3.797,0.935c2.963,0,5.826-1.607,7.291-4.418l6.234-11.948l-0.029,14.462
		c-0.01,4.542,3.666,8.229,8.205,8.236c1.371,0.003,2.662-0.33,3.797-0.919c2.631-1.368,4.432-4.115,4.438-7.284l0.086-47.044
		c0.295-1.806-0.004-3.683-0.918-5.324c-1.348-2.42-3.822-3.993-6.586-4.192l-31.176-2.249l28.871-24.917l12.736,12.348
		c1.664,1.612,3.896,2.4,6.133,2.289l27.609,0.163c4.512,0.023,8.098-3.511,7.994-7.898
		C412.867,100.532,409.129,96.957,404.615,96.925z"/>
</g>
<path fill="#2c3e50" d="M532.75,63.731l-23.727-0.795l-20.041-20.445c-0.035-0.035-0.076-0.06-0.109-0.095l-0.006,0.06
	c-1.889-1.771-4.385-2.859-7.133-2.859c-5.881,0-10.643,4.932-10.643,11.016v28.99c0,14.204-0.922,16.377-0.922,16.377h0.008
	c-0.729,1.851-1.146,3.938-1.146,6.153c0,4.153,1.445,7.864,3.721,10.372v69.424c0,5.609,4.395,10.157,9.811,10.157
	c5.422,0,9.812-4.547,9.812-10.157V98.785v-4.883V69.475l6.643,6.795c1.619,1.655,3.83,2.503,6.066,2.452l27.6,0.902
	c4.506,0.146,8.188-3.292,8.199-7.682C540.904,67.557,537.262,63.883,532.75,63.731z"/>
<path fill="#2c3e50" d="M591.689,82.746h-17.395l9.906-46.977c0.834-0.8,1.357-1.918,1.357-3.167c0-2.432-1.969-4.397-4.396-4.397
	c-0.949,0-1.82,0.308-2.541,0.817h-8.352l0.729-22.054c0.088-2.62-1.967-4.813-4.586-4.9c-2.617-0.06-4.814,1.968-4.902,4.587
	l-1.482,44.99c-0.088,2.619,1.967,4.813,4.586,4.899c0.053,0.002,0.105,0.003,0.158,0.003c2.551,0,4.658-2.023,4.744-4.59
	l0.576-17.511h7.09c0.314,0.679,0.797,1.262,1.395,1.699l-9.826,46.601h-7.727v-5.73c0-1.499-1.215-2.712-2.713-2.712
	c-0.064,0-0.127,0.015-0.189,0.02c-0.377-0.037-0.766-0.002-1.145,0.128l-17.602,6.085c-1.002,0.347-1.66,1.225-1.793,2.209h-17.441
	c-2.619,0-4.744,2.126-4.744,4.747c0,2.622,2.125,4.747,4.744,4.747h28.473l-16.318,77.375c-4.668,1.425-8.088,5.676-8.285,10.769
	h-9.291c-2.623,0-4.748,2.126-4.748,4.747c0,2.621,2.125,4.747,4.748,4.747h55.32c2.621,0,4.748-2.126,4.748-4.747
	c0-2.621-2.127-4.747-4.748-4.747h-22.588c-0.158-4.092-2.4-7.635-5.699-9.609l16.562-78.534h33.375
	c2.623,0,4.748-2.125,4.748-4.747C596.438,84.872,594.312,82.746,591.689,82.746z M555.6,80.668v2.078h-6.01L555.6,80.668z"/>
<g>
	<g>
		<defs>
			<rect id="SVGID_1_" x="2.196" y="207.578" width="607.606" height="14.376"/>
		</defs>
		<clipPath id="SVGID_2_">
			<use xlink:href="#SVGID_1_"  overflow="visible"/>
		</clipPath>
		<path clip-path="url(#SVGID_2_)" fill="#2c3e50" d="M3.319,222.188c-0.749,0-1.356-0.607-1.356-1.356v-12.13
			c0-0.749,0.607-1.356,1.356-1.356s1.356,0.607,1.356,1.356v12.13C4.675,221.581,4.068,222.188,3.319,222.188z"/>
		<path clip-path="url(#SVGID_2_)" fill="#2c3e50" d="M70.581,222.188c-0.749,0-1.355-0.607-1.355-1.356v-12.13
			c0-0.749,0.607-1.356,1.355-1.356c0.75,0,1.356,0.607,1.356,1.356v12.13C71.937,221.581,71.33,222.188,70.581,222.188z"/>
		<path clip-path="url(#SVGID_2_)" fill="#2c3e50" d="M339.631,222.188c-0.748,0-1.355-0.607-1.355-1.356v-12.13
			c0-0.749,0.607-1.356,1.355-1.356c0.75,0,1.355,0.607,1.355,1.356v12.13C340.986,221.581,340.381,222.188,339.631,222.188z"/>
		<path clip-path="url(#SVGID_2_)" fill="#2c3e50" d="M137.845,222.188c-0.749,0-1.356-0.607-1.356-1.356v-12.13
			c0-0.749,0.607-1.356,1.356-1.356c0.749,0,1.356,0.607,1.356,1.356v12.13C139.201,221.581,138.593,222.188,137.845,222.188z"/>
		<path clip-path="url(#SVGID_2_)" fill="#2c3e50" d="M406.895,222.188c-0.75,0-1.357-0.607-1.357-1.356v-12.13
			c0-0.749,0.607-1.356,1.357-1.356c0.748,0,1.355,0.607,1.355,1.356v12.13C408.25,221.581,407.643,222.188,406.895,222.188z"/>
		<path clip-path="url(#SVGID_2_)" fill="#2c3e50" d="M205.105,222.188c-0.749,0-1.356-0.607-1.356-1.356v-12.13
			c0-0.749,0.607-1.356,1.356-1.356s1.357,0.607,1.357,1.356v12.13C206.462,221.581,205.854,222.188,205.105,222.188z"/>
		<path clip-path="url(#SVGID_2_)" fill="#2c3e50" d="M474.154,222.188c-0.75,0-1.355-0.607-1.355-1.356v-12.13
			c0-0.749,0.605-1.356,1.355-1.356s1.355,0.607,1.355,1.356v12.13C475.51,221.581,474.904,222.188,474.154,222.188z"/>
		<path clip-path="url(#SVGID_2_)" fill="#2c3e50" d="M272.368,222.188c-0.749,0-1.355-0.607-1.355-1.356v-12.13
			c0-0.749,0.607-1.356,1.355-1.356c0.75,0,1.357,0.607,1.357,1.356v12.13C273.725,221.581,273.118,222.188,272.368,222.188z"/>
	</g>
	<path fill="#2c3e50" d="M281.977,219.263c-0.374,0-0.677-0.304-0.677-0.678v-7.638c0-0.375,0.303-0.678,0.677-0.678
		c0.375,0,0.679,0.303,0.679,0.678v7.638C282.656,218.959,282.353,219.263,281.977,219.263z"/>
	<path fill="#2c3e50" d="M214.715,219.263c-0.375,0-0.678-0.304-0.678-0.678v-7.638c0-0.375,0.304-0.678,0.678-0.678
		s0.678,0.303,0.678,0.678v7.638C215.394,218.959,215.09,219.263,214.715,219.263z"/>
	<path fill="#2c3e50" d="M147.453,219.263c-0.375,0-0.678-0.304-0.678-0.678v-7.638c0-0.375,0.304-0.678,0.678-0.678
		s0.678,0.303,0.678,0.678v7.638C148.131,218.959,147.828,219.263,147.453,219.263z"/>
	<path fill="#2c3e50" d="M80.191,219.263c-0.375,0-0.678-0.304-0.678-0.678v-7.638c0-0.375,0.303-0.678,0.678-0.678
		c0.375,0,0.678,0.303,0.678,0.678v7.638C80.869,218.959,80.566,219.263,80.191,219.263z"/>
	<path fill="#2c3e50" d="M12.928,219.263c-0.375,0-0.678-0.304-0.678-0.678v-7.638c0-0.375,0.303-0.678,0.678-0.678
		c0.375,0,0.678,0.303,0.678,0.678v7.638C13.606,218.959,13.303,219.263,12.928,219.263z"/>
	<path fill="#2c3e50" d="M349.24,219.263c-0.375,0-0.68-0.304-0.68-0.678v-7.638c0-0.375,0.305-0.678,0.68-0.678
		s0.678,0.303,0.678,0.678v7.638C349.918,218.959,349.615,219.263,349.24,219.263z"/>
	<path fill="#2c3e50" d="M416.5,219.263c-0.373,0-0.678-0.304-0.678-0.678v-7.638c0-0.375,0.305-0.678,0.678-0.678
		c0.375,0,0.68,0.303,0.68,0.678v7.638C417.18,218.959,416.875,219.263,416.5,219.263z"/>
	<path fill="#2c3e50" d="M483.764,219.263c-0.375,0-0.678-0.304-0.678-0.678v-7.638c0-0.375,0.303-0.678,0.678-0.678
		s0.68,0.303,0.68,0.678v7.638C484.443,218.959,484.139,219.263,483.764,219.263z"/>
	<path fill="#2c3e50" d="M541.418,219.263c-0.375,0-0.68-0.304-0.68-0.678v-7.638c0-0.375,0.305-0.678,0.68-0.678
		c0.373,0,0.678,0.303,0.678,0.678v7.638C542.096,218.959,541.791,219.263,541.418,219.263z"/>
	<path fill="#2c3e50" d="M291.584,219.263c-0.375,0-0.678-0.304-0.678-0.678v-7.638c0-0.375,0.303-0.678,0.678-0.678
		c0.375,0,0.678,0.303,0.678,0.678v7.638C292.263,218.959,291.959,219.263,291.584,219.263z"/>
	<path fill="#2c3e50" d="M224.324,219.263c-0.375,0-0.678-0.304-0.678-0.678v-7.638c0-0.375,0.304-0.678,0.678-0.678
		s0.678,0.303,0.678,0.678v7.638C225.002,218.959,224.698,219.263,224.324,219.263z"/>
	<path fill="#2c3e50" d="M157.062,219.263c-0.375,0-0.678-0.304-0.678-0.678v-7.638c0-0.375,0.304-0.678,0.678-0.678
		c0.375,0,0.678,0.303,0.678,0.678v7.638C157.74,218.959,157.437,219.263,157.062,219.263z"/>
	<path fill="#2c3e50" d="M89.8,219.263c-0.375,0-0.678-0.304-0.678-0.678v-7.638c0-0.375,0.304-0.678,0.678-0.678
		c0.375,0,0.678,0.303,0.678,0.678v7.638C90.478,218.959,90.175,219.263,89.8,219.263z"/>
	<path fill="#2c3e50" d="M22.537,219.263c-0.375,0-0.678-0.304-0.678-0.678v-7.638c0-0.375,0.303-0.678,0.678-0.678
		c0.375,0,0.679,0.303,0.679,0.678v7.638C23.216,218.959,22.913,219.263,22.537,219.263z"/>
	<path fill="#2c3e50" d="M358.848,219.263c-0.375,0-0.68-0.304-0.68-0.678v-7.638c0-0.375,0.305-0.678,0.68-0.678
		s0.678,0.303,0.678,0.678v7.638C359.525,218.959,359.223,219.263,358.848,219.263z"/>
	<path fill="#2c3e50" d="M426.111,219.263c-0.375,0-0.678-0.304-0.678-0.678v-7.638c0-0.375,0.303-0.678,0.678-0.678
		s0.678,0.303,0.678,0.678v7.638C426.789,218.959,426.486,219.263,426.111,219.263z"/>
	<path fill="#2c3e50" d="M493.371,219.263c-0.375,0-0.678-0.304-0.678-0.678v-7.638c0-0.375,0.303-0.678,0.678-0.678
		s0.678,0.303,0.678,0.678v7.638C494.049,218.959,493.746,219.263,493.371,219.263z"/>
	<path fill="#2c3e50" d="M560.637,219.263c-0.375,0-0.678-0.304-0.678-0.678v-7.638c0-0.375,0.303-0.678,0.678-0.678
		s0.678,0.303,0.678,0.678v7.638C561.314,218.959,561.012,219.263,560.637,219.263z"/>
	<path fill="#2c3e50" d="M301.195,219.263c-0.375,0-0.677-0.304-0.677-0.678v-7.638c0-0.375,0.303-0.678,0.677-0.678
		c0.375,0,0.678,0.303,0.678,0.678v7.638C301.873,218.959,301.57,219.263,301.195,219.263z"/>
	<path fill="#2c3e50" d="M233.933,219.263c-0.375,0-0.677-0.304-0.677-0.678v-7.638c0-0.375,0.303-0.678,0.677-0.678
		c0.375,0,0.678,0.303,0.678,0.678v7.638C234.611,218.959,234.309,219.263,233.933,219.263z"/>
	<path fill="#2c3e50" d="M166.67,219.263c-0.375,0-0.678-0.304-0.678-0.678v-7.638c0-0.375,0.304-0.678,0.678-0.678
		c0.375,0,0.678,0.303,0.678,0.678v7.638C167.349,218.959,167.045,219.263,166.67,219.263z"/>
	<path fill="#2c3e50" d="M99.409,219.263c-0.375,0-0.679-0.304-0.679-0.678v-7.638c0-0.375,0.304-0.678,0.679-0.678
		c0.375,0,0.678,0.303,0.678,0.678v7.638C100.087,218.959,99.784,219.263,99.409,219.263z"/>
	<path fill="#2c3e50" d="M32.145,219.263c-0.375,0-0.678-0.304-0.678-0.678v-7.638c0-0.375,0.304-0.678,0.678-0.678
		c0.375,0,0.679,0.303,0.679,0.678v7.638C32.824,218.959,32.521,219.263,32.145,219.263z"/>
	<path fill="#2c3e50" d="M368.457,219.263c-0.373,0-0.678-0.304-0.678-0.678v-7.638c0-0.375,0.305-0.678,0.678-0.678
		c0.375,0,0.68,0.303,0.68,0.678v7.638C369.137,218.959,368.832,219.263,368.457,219.263z"/>
	<path fill="#2c3e50" d="M435.721,219.263c-0.373,0-0.678-0.304-0.678-0.678v-7.638c0-0.375,0.305-0.678,0.678-0.678
		c0.375,0,0.678,0.303,0.678,0.678v7.638C436.398,218.959,436.096,219.263,435.721,219.263z"/>
	<path fill="#2c3e50" d="M502.98,219.263c-0.375,0-0.678-0.304-0.678-0.678v-7.638c0-0.375,0.303-0.678,0.678-0.678
		s0.68,0.303,0.68,0.678v7.638C503.66,218.959,503.355,219.263,502.98,219.263z"/>
	<path fill="#2c3e50" d="M570.244,219.263c-0.375,0-0.678-0.304-0.678-0.678v-7.638c0-0.375,0.303-0.678,0.678-0.678
		s0.678,0.303,0.678,0.678v7.638C570.922,218.959,570.619,219.263,570.244,219.263z"/>
	<path fill="#2c3e50" d="M310.805,219.263c-0.377,0-0.678-0.304-0.678-0.678v-7.638c0-0.375,0.301-0.678,0.678-0.678
		c0.373,0,0.678,0.303,0.678,0.678v7.638C311.482,218.959,311.178,219.263,310.805,219.263z"/>
	<path fill="#2c3e50" d="M243.541,219.263c-0.375,0-0.678-0.304-0.678-0.678v-7.638c0-0.375,0.303-0.678,0.678-0.678
		c0.375,0,0.678,0.303,0.678,0.678v7.638C244.219,218.959,243.916,219.263,243.541,219.263z"/>
	<path fill="#2c3e50" d="M176.28,219.263c-0.375,0-0.679-0.304-0.679-0.678v-7.638c0-0.375,0.304-0.678,0.679-0.678
		s0.678,0.303,0.678,0.678v7.638C176.958,218.959,176.654,219.263,176.28,219.263z"/>
	<path fill="#2c3e50" d="M109.018,219.263c-0.375,0-0.679-0.304-0.679-0.678v-7.638c0-0.375,0.304-0.678,0.679-0.678
		c0.375,0,0.678,0.303,0.678,0.678v7.638C109.696,218.959,109.392,219.263,109.018,219.263z"/>
	<path fill="#2c3e50" d="M41.755,219.263c-0.375,0-0.678-0.304-0.678-0.678v-7.638c0-0.375,0.303-0.678,0.678-0.678
		c0.375,0,0.678,0.303,0.678,0.678v7.638C42.433,218.959,42.13,219.263,41.755,219.263z"/>
	<path fill="#2c3e50" d="M378.066,219.263c-0.375,0-0.678-0.304-0.678-0.678v-7.638c0-0.375,0.303-0.678,0.678-0.678
		s0.678,0.303,0.678,0.678v7.638C378.744,218.959,378.441,219.263,378.066,219.263z"/>
	<path fill="#2c3e50" d="M445.33,219.263c-0.375,0-0.678-0.304-0.678-0.678v-7.638c0-0.375,0.303-0.678,0.678-0.678
		s0.678,0.303,0.678,0.678v7.638C446.008,218.959,445.705,219.263,445.33,219.263z"/>
	<path fill="#2c3e50" d="M512.59,219.263c-0.375,0-0.676-0.304-0.676-0.678v-7.638c0-0.375,0.301-0.678,0.676-0.678
		s0.678,0.303,0.678,0.678v7.638C513.268,218.959,512.965,219.263,512.59,219.263z"/>
	<path fill="#2c3e50" d="M579.854,219.263c-0.375,0-0.678-0.304-0.678-0.678v-7.638c0-0.375,0.303-0.678,0.678-0.678
		s0.678,0.303,0.678,0.678v7.638C580.531,218.959,580.229,219.263,579.854,219.263z"/>
	<path fill="#2c3e50" d="M320.414,219.263c-0.375,0-0.68-0.304-0.68-0.678v-7.638c0-0.375,0.305-0.678,0.68-0.678
		c0.377,0,0.678,0.303,0.678,0.678v7.638C321.092,218.959,320.791,219.263,320.414,219.263z"/>
	<path fill="#2c3e50" d="M253.15,219.263c-0.375,0-0.678-0.304-0.678-0.678v-7.638c0-0.375,0.304-0.678,0.678-0.678
		s0.678,0.303,0.678,0.678v7.638C253.829,218.959,253.525,219.263,253.15,219.263z"/>
	<path fill="#2c3e50" d="M185.889,219.263c-0.375,0-0.678-0.304-0.678-0.678v-7.638c0-0.375,0.304-0.678,0.678-0.678
		c0.375,0,0.678,0.303,0.678,0.678v7.638C186.567,218.959,186.264,219.263,185.889,219.263z"/>
	<path fill="#2c3e50" d="M118.626,219.263c-0.375,0-0.678-0.304-0.678-0.678v-7.638c0-0.375,0.303-0.678,0.678-0.678
		c0.375,0,0.678,0.303,0.678,0.678v7.638C119.304,218.959,119.001,219.263,118.626,219.263z"/>
	<path fill="#2c3e50" d="M51.363,219.263c-0.375,0-0.678-0.304-0.678-0.678v-7.638c0-0.375,0.303-0.678,0.678-0.678
		c0.375,0,0.678,0.303,0.678,0.678v7.638C52.042,218.959,51.739,219.263,51.363,219.263z"/>
	<path fill="#2c3e50" d="M387.674,219.263c-0.373,0-0.678-0.304-0.678-0.678v-7.638c0-0.375,0.305-0.678,0.678-0.678
		c0.375,0,0.68,0.303,0.68,0.678v7.638C388.354,218.959,388.049,219.263,387.674,219.263z"/>
	<path fill="#2c3e50" d="M454.938,219.263c-0.375,0-0.678-0.304-0.678-0.678v-7.638c0-0.375,0.303-0.678,0.678-0.678
		s0.678,0.303,0.678,0.678v7.638C455.615,218.959,455.312,219.263,454.938,219.263z"/>
	<path fill="#2c3e50" d="M522.201,219.263c-0.375,0-0.68-0.304-0.68-0.678v-7.638c0-0.375,0.305-0.678,0.68-0.678
		c0.373,0,0.678,0.303,0.678,0.678v7.638C522.879,218.959,522.574,219.263,522.201,219.263z"/>
	<path fill="#2c3e50" d="M589.461,219.263c-0.375,0-0.678-0.304-0.678-0.678v-7.638c0-0.375,0.303-0.678,0.678-0.678
		s0.678,0.303,0.678,0.678v7.638C590.139,218.959,589.836,219.263,589.461,219.263z"/>
	<path fill="#2c3e50" d="M330.023,219.263c-0.375,0-0.678-0.304-0.678-0.678v-7.638c0-0.375,0.303-0.678,0.678-0.678
		s0.678,0.303,0.678,0.678v7.638C330.701,218.959,330.398,219.263,330.023,219.263z"/>
	<path fill="#2c3e50" d="M262.759,219.263c-0.375,0-0.677-0.304-0.677-0.678v-7.638c0-0.375,0.303-0.678,0.677-0.678
		c0.375,0,0.678,0.303,0.678,0.678v7.638C263.438,218.959,263.135,219.263,262.759,219.263z"/>
	<path fill="#2c3e50" d="M195.498,219.263c-0.375,0-0.678-0.304-0.678-0.678v-7.638c0-0.375,0.303-0.678,0.678-0.678
		c0.375,0,0.678,0.303,0.678,0.678v7.638C196.176,218.959,195.873,219.263,195.498,219.263z"/>
	<path fill="#2c3e50" d="M128.235,219.263c-0.375,0-0.678-0.304-0.678-0.678v-7.638c0-0.375,0.303-0.678,0.678-0.678
		c0.375,0,0.678,0.303,0.678,0.678v7.638C128.913,218.959,128.61,219.263,128.235,219.263z"/>
	<path fill="#2c3e50" d="M60.972,219.263c-0.375,0-0.678-0.304-0.678-0.678v-7.638c0-0.375,0.303-0.678,0.678-0.678
		c0.375,0,0.678,0.303,0.678,0.678v7.638C61.65,218.959,61.348,219.263,60.972,219.263z"/>
	<path fill="#2c3e50" d="M397.283,219.263c-0.375,0-0.678-0.304-0.678-0.678v-7.638c0-0.375,0.303-0.678,0.678-0.678
		c0.377,0,0.678,0.303,0.678,0.678v7.638C397.961,218.959,397.66,219.263,397.283,219.263z"/>
	<path fill="#2c3e50" d="M464.547,219.263c-0.375,0-0.678-0.304-0.678-0.678v-7.638c0-0.375,0.303-0.678,0.678-0.678
		s0.678,0.303,0.678,0.678v7.638C465.225,218.959,464.922,219.263,464.547,219.263z"/>
	<path fill="#2c3e50" d="M531.809,219.263c-0.373,0-0.676-0.304-0.676-0.678v-7.638c0-0.375,0.303-0.678,0.676-0.678
		c0.377,0,0.68,0.303,0.68,0.678v7.638C532.488,218.959,532.186,219.263,531.809,219.263z"/>
	<path fill="#2c3e50" d="M599.07,219.263c-0.375,0-0.678-0.304-0.678-0.678v-7.638c0-0.375,0.303-0.678,0.678-0.678
		s0.678,0.303,0.678,0.678v7.638C599.748,218.959,599.445,219.263,599.07,219.263z"/>
	<g>
		<defs>
			<rect id="SVGID_3_" x="2.196" y="207.578" width="607.606" height="14.376"/>
		</defs>
		<clipPath id="SVGID_4_">
			<use xlink:href="#SVGID_3_"  overflow="visible"/>
		</clipPath>
		<path clip-path="url(#SVGID_4_)" fill="#2c3e50" d="M551.025,222.188c-0.748,0-1.355-0.607-1.355-1.356v-12.13
			c0-0.749,0.607-1.356,1.355-1.356c0.75,0,1.357,0.607,1.357,1.356v12.13C552.383,221.581,551.775,222.188,551.025,222.188z"/>
		<path clip-path="url(#SVGID_4_)" fill="#2c3e50" d="M608.678,222.188c-0.75,0-1.355-0.607-1.355-1.356v-12.13
			c0-0.749,0.605-1.356,1.355-1.356s1.355,0.607,1.355,1.356v12.13C610.033,221.581,609.428,222.188,608.678,222.188z"/>
	</g>
</g>
</svg>
