<?xml version="1.0" encoding="utf-8"?>
<!-- Generator: Adobe Illustrator 16.0.4, SVG Export Plug-In . SVG Version: 6.00 Build 0)  -->
<!DOCTYPE svg PUBLIC "-//W3C//DTD SVG 1.1//EN" "http://www.w3.org/Graphics/SVG/1.1/DTD/svg11.dtd">
<svg version="1.1" id="Layer_1" xmlns="http://www.w3.org/2000/svg" xmlns:xlink="http://www.w3.org/1999/xlink" x="0px" y="0px"
	 width="144px" height="144px" viewBox="0 0 144 144" enable-background="new 0 0 144 144" xml:space="preserve">
<g>
	<path fill="#ECEFF0" d="M115.482,135.551c-0.651,0.896-2.092,1.631-3.2,1.631H30.818c-1.109,0-2.55-0.733-3.202-1.631L12.382,114.6
		c-0.652-0.897-1.186-2.539-1.186-3.646V33.062c0-1.109,0.533-2.75,1.185-3.647L27.617,8.45c0.652-0.897,2.092-1.631,3.201-1.631
		h81.464c1.108,0,2.549,0.734,3.2,1.631l15.238,20.965c0.652,0.897,1.187,2.538,1.187,3.647v77.891c0,1.107-0.533,2.748-1.187,3.646
		L115.482,135.551z"/>
</g>
<polygon fill="#E64C3B" points="15.83,122.211 11.197,113.887 11.197,30.263 28.802,5.534 114.298,5.534 131.907,30.263
	131.907,74.27 "/>
<g>
	<path fill="none" stroke="#ECEFF0" stroke-width="7" stroke-miterlimit="10" d="M120.275,134.018
		c-2.33,3.203-7.477,5.822-11.437,5.822h-74.58c-3.96,0-9.105-2.619-11.435-5.822l-9.855-13.554
		c-2.329-3.202-4.234-9.063-4.234-13.022V36.573c0-3.96,1.905-9.821,4.233-13.024l9.858-13.565
		c2.328-3.203,7.473-5.824,11.433-5.824h74.581c3.96,0,9.105,2.621,11.434,5.824l9.863,13.566c2.327,3.203,4.232,9.064,4.232,13.024
		v70.867c0,3.959-1.906,9.819-4.235,13.021L120.275,134.018z"/>
</g>
<rect x="37.057" y="19.39" fill="none" width="68.991" height="15.61"/>
<g enable-background="new    ">
	<path fill="#ECEFF0" d="M51.815,34.21h-4.932l-5.084-9.807h-0.085c0.12,1.542,0.181,2.72,0.181,3.532v6.274h-3.333V20.29h4.913
		l5.065,9.674h0.057c-0.089-1.403-0.133-2.53-0.133-3.381V20.29h3.352V34.21z"/>
	<path fill="#ECEFF0" d="M67.849,27.23c0,2.343-0.575,4.123-1.723,5.342c-1.149,1.219-2.832,1.828-5.047,1.828
		c-2.184,0-3.857-0.612-5.022-1.838c-1.165-1.225-1.747-3.009-1.747-5.351c0-2.317,0.579-4.087,1.738-5.309
		c1.158-1.222,2.842-1.833,5.051-1.833c2.215,0,3.894,0.606,5.037,1.819C67.278,23.102,67.849,24.882,67.849,27.23z M58.271,27.23
		c0,2.691,0.936,4.037,2.809,4.037c0.952,0,1.659-0.326,2.119-0.98c0.46-0.653,0.69-1.673,0.69-3.057c0-1.39-0.233-2.417-0.7-3.08
		c-0.467-0.663-1.164-0.995-2.09-0.995C59.213,23.155,58.271,24.514,58.271,27.23z"/>
	<path fill="#ECEFF0" d="M70.363,20.29h4.856c1.892,0,3.296,0.28,4.213,0.842c0.918,0.562,1.376,1.437,1.376,2.623
		c0,0.781-0.2,1.447-0.6,2s-0.927,0.908-1.581,1.066v0.096c0.863,0.229,1.488,0.609,1.876,1.143s0.581,1.225,0.581,2.075
		c0,1.264-0.475,2.258-1.424,2.985c-0.949,0.727-2.242,1.09-3.88,1.09h-5.417V20.29z M74.124,25.631h1.133
		c0.54,0,0.957-0.11,1.252-0.333c0.296-0.222,0.442-0.553,0.442-0.99c0-0.781-0.59-1.171-1.771-1.171h-1.057V25.631z M74.124,28.383
		v2.923h1.323c1.174,0,1.762-0.495,1.762-1.485c0-0.463-0.157-0.818-0.472-1.066c-0.313-0.247-0.77-0.371-1.366-0.371H74.124z"/>
	<path fill="#ECEFF0" d="M83.502,34.21V20.29h3.762v10.883h5.36v3.037H83.502z"/>
	<path fill="#ECEFF0" d="M103.117,34.21h-8.266V20.29h8.266v3.018h-4.504v2.19h4.17v3.019h-4.17v2.627h4.504V34.21z"/>
</g>
<g>
	<path fill="none" stroke="#2C3E50" stroke-width="7" stroke-miterlimit="10" d="M117.956,130.479
		c-2.329,3.203-7.476,5.823-11.435,5.823H36.579c-3.96,0-9.105-2.62-11.434-5.823l-8.9-12.239
		c-2.329-3.203-4.234-9.063-4.234-13.023V38.798c0-3.96,1.905-9.821,4.232-13.025l8.903-12.25c2.328-3.204,7.473-5.825,11.433-5.825
		h69.942c3.961,0,9.105,2.621,11.435,5.824l8.905,12.251c2.328,3.204,4.232,9.064,4.232,13.024v66.417
		c0,3.96-1.904,9.82-4.234,13.022L117.956,130.479z"/>
</g>
<g>
	<path fill="none" stroke="#E64C3B" stroke-width="9" stroke-linecap="round" stroke-linejoin="round" stroke-miterlimit="10" d="
		M55.271,47.016c0,0-6.178-13.907-20.802,19.368c-14.629,33.269,8.446,30.925,20.802,1.922"/>
	<path fill="none" stroke="#E64C3B" stroke-width="9" stroke-linecap="round" stroke-linejoin="round" stroke-miterlimit="10" d="
		M41.85,73.525l18.169-7.678c0,0-15.26,21.536-14.879,29.75"/>
	<path fill="none" stroke="#E64C3B" stroke-width="9" stroke-linecap="round" stroke-linejoin="round" stroke-miterlimit="10" d="
		M57.428,42.32c0,0-0.758,7.681-7.18,16.528"/>
	<path fill="none" stroke="#E64C3B" stroke-width="9" stroke-linecap="round" stroke-linejoin="round" stroke-miterlimit="10" d="
		M70.819,58.021c0,0-13.398,22.758-4.455,22.799c11.845,0.059,15.888-25.14,15.888-25.14s-10.226,35.203,5.783,15.458"/>
	<path fill="none" stroke="#E64C3B" stroke-width="9" stroke-linecap="round" stroke-linejoin="round" stroke-miterlimit="10" d="
		M93.794,51.854c0,0-12.082,19.652-1.229,19.812c9.285,0.139,16.367-24.947,16.367-24.947L88.234,90.396
		c0,0-12.16,24.733-19.02,20.254c-3.743-2.441-1.808-6.84-0.213-9.721c4.124-7.455,11.559-12.347,18.43-17.017
		c7.203-4.904,15.1-8.496,22.941-12.225c0.975-0.464,2.078-0.88,2.943-1.527"/>
</g>
<g>

		<path fill="none" stroke="#ECEFF0" stroke-width="4.75" stroke-linecap="round" stroke-linejoin="round" stroke-miterlimit="10" d="
		M55.286,47.016c0,0-6.178-13.907-20.798,19.368c-14.629,33.269,8.444,30.925,20.798,1.922"/>

		<path fill="none" stroke="#ECEFF0" stroke-width="4.75" stroke-linecap="round" stroke-linejoin="round" stroke-miterlimit="10" d="
		M41.866,73.525l17.394-7.352c0,0-14.481,21.208-14.101,29.424"/>

		<path fill="none" stroke="#ECEFF0" stroke-width="4.75" stroke-linecap="round" stroke-linejoin="round" stroke-miterlimit="10" d="
		M57.443,42.32c0,0-0.755,7.681-7.176,16.528"/>

		<path fill="none" stroke="#ECEFF0" stroke-width="4.75" stroke-linecap="round" stroke-linejoin="round" stroke-miterlimit="10" d="
		M70.838,58.021c0,0-13.398,22.758-4.455,22.799c10.846,0.084,17.198-25.14,17.198-25.14s-11.536,35.203,4.472,15.458"/>

		<path fill="none" stroke="#ECEFF0" stroke-width="4.75" stroke-linecap="round" stroke-linejoin="round" stroke-miterlimit="10" d="
		M93.812,51.854c0,0-12.086,19.652-1.233,19.812c9.288,0.139,16.373-24.947,16.373-24.947L88.25,90.396
		c0,0-12.156,24.733-19.019,20.254c-3.74-2.441-1.808-6.84-0.213-9.721c4.125-7.455,11.564-12.347,18.435-17.017
		c7.199-4.904,15.099-8.496,22.938-12.225c0.971-0.464,2.071-0.88,2.944-1.527"/>
</g>
<g>
	<path fill="none" stroke="#2C3E50" stroke-width="2.5" stroke-miterlimit="10" d="M105.609,116.536
		c0.062,5.098-4.022,9.284-9.121,9.348c-5.1,0.063-9.288-4.021-9.352-9.118c-0.062-5.103,4.023-9.289,9.123-9.353
		C101.357,107.35,105.547,111.436,105.609,116.536z"/>
	<path fill="none" stroke="#2C3E50" stroke-width="2.5" stroke-miterlimit="10" d="M114.381,94.779
		c0.032,2.646-2.087,4.818-4.729,4.852c-2.649,0.032-4.819-2.085-4.853-4.732c-0.032-2.646,2.084-4.819,4.733-4.853
		C112.175,90.014,114.348,92.133,114.381,94.779z"/>
	<path fill="none" stroke="#2C3E50" stroke-width="2.5" stroke-miterlimit="10" d="M55.656,123.289
		c0.033,2.645-2.086,4.818-4.73,4.852c-2.651,0.033-4.819-2.089-4.852-4.732c-0.033-2.646,2.083-4.819,4.733-4.852
		C53.452,118.521,55.624,120.643,55.656,123.289z"/>
	<path fill="none" stroke="#2C3E50" stroke-width="2.5" stroke-miterlimit="10" d="M120.212,108.975
		c-0.106,1.688-1.567,2.976-3.254,2.871c-1.69-0.107-2.974-1.566-2.867-3.257c0.104-1.69,1.562-2.978,3.248-2.868
		C119.029,105.823,120.314,107.283,120.212,108.975z"/>

		<line fill="none" stroke="#2C3E50" stroke-width="2.5" stroke-miterlimit="10" x1="55.656" y1="123.289" x2="87.163" y2="118.855"/>

		<line fill="none" stroke="#2C3E50" stroke-width="2.5" stroke-miterlimit="10" x1="101.141" y1="109.753" x2="107.064" y2="98.907"/>

		<line fill="none" stroke="#2C3E50" stroke-width="2.5" stroke-miterlimit="10" x1="105.673" y1="114.486" x2="113.939" y2="110.348"/>
</g>
<circle fill="none" stroke="#2C3E50" stroke-width="0.75" stroke-miterlimit="10" cx="-9.901" cy="81.07" r="0.865"/>
</svg>
