<?xml version="1.0" encoding="UTF-8" standalone="no"?>
<!-- Created with Inkscape (http://www.inkscape.org/) -->

<svg
   xmlns:dc="http://purl.org/dc/elements/1.1/"
   xmlns:cc="http://creativecommons.org/ns#"
   xmlns:rdf="http://www.w3.org/1999/02/22-rdf-syntax-ns#"
   xmlns:svg="http://www.w3.org/2000/svg"
   xmlns="http://www.w3.org/2000/svg"
   xmlns:sodipodi="http://sodipodi.sourceforge.net/DTD/sodipodi-0.dtd"
   xmlns:inkscape="http://www.inkscape.org/namespaces/inkscape"
   width="8.5in"
   height="11in"
   viewBox="0 0 215.9 279.4"
   version="1.1"
   id="svg92"
   sodipodi:docname="Hexaflake_3rd Iteration.svg"
   inkscape:version="0.92.4 (5da689c313, 2019-01-14)"
   inkscape:export-filename="C:\Users\Ben\Documents\Projects\blog\static\img\HexaFlake_3rd_Iteration.png"
   inkscape:export-xdpi="96"
   inkscape:export-ydpi="96">
  <defs
     id="defs86" />
  <sodipodi:namedview
     id="base"
     pagecolor="#ffffff"
     bordercolor="#666666"
     borderopacity="1.0"
     inkscape:pageopacity="0.0"
     inkscape:pageshadow="2"
     inkscape:zoom="0.35"
     inkscape:cx="294.45918"
     inkscape:cy="957.5873"
     inkscape:document-units="mm"
     inkscape:current-layer="layer1"
     showgrid="false"
     inkscape:window-width="2560"
     inkscape:window-height="1017"
     inkscape:window-x="-8"
     inkscape:window-y="-8"
     inkscape:window-maximized="1"
     units="in" />
  <metadata
     id="metadata89">
    <rdf:RDF>
      <cc:Work
         rdf:about="">
        <dc:format>image/svg+xml</dc:format>
        <dc:type
           rdf:resource="http://purl.org/dc/dcmitype/StillImage" />
        <dc:title></dc:title>
      </cc:Work>
    </rdf:RDF>
  </metadata>
  <g
     inkscape:label="Layer 1"
     inkscape:groupmode="layer"
     id="layer1"
     transform="translate(0,-17.6)">
    <path
       sodipodi:type="star"
       style="fill:#000000;fill-opacity:1;stroke-width:0.26458332"
       id="path96"
       sodipodi:sides="6"
       sodipodi:cx="53.222443"
       sodipodi:cy="43.059597"
       sodipodi:r1="51.103725"
       sodipodi:r2="44.257122"
       sodipodi:arg1="1.0608243"
       sodipodi:arg2="1.584423"
       inkscape:flatsided="true"
       inkscape:rounded="0"
       inkscape:randomized="0"
       d="M 78.168871,87.660791 27.06989,86.964434 2.1234618,42.363241 28.276014,-1.5415965 79.374995,-0.84524045 104.32142,43.755953 Z"
       inkscape:transform-center-y="-1.3142719e-06"
       transform="matrix(0.66713762,0,0,0.70338985,34.724678,26.00108)" />
    <path
       sodipodi:type="star"
       style="fill:#000000;fill-opacity:1;stroke-width:0.26458332"
       id="path96-2"
       sodipodi:sides="6"
       sodipodi:cx="53.222443"
       sodipodi:cy="43.059597"
       sodipodi:r1="51.103725"
       sodipodi:r2="44.257122"
       sodipodi:arg1="1.0608243"
       sodipodi:arg2="1.584423"
       inkscape:flatsided="true"
       inkscape:rounded="0"
       inkscape:randomized="0"
       d="M 78.168871,87.660791 27.06989,86.964434 2.1234618,42.363241 28.276014,-1.5415965 79.374995,-0.84524045 104.32142,43.755953 Z"
       inkscape:transform-center-y="-1.3142719e-06"
       transform="matrix(0.66713761,0,0,0.70338984,68.01008,88.745134)" />
    <path
       sodipodi:type="star"
       style="fill:#000000;fill-opacity:1;stroke-width:0.26458332"
       id="path96-2-8"
       sodipodi:sides="6"
       sodipodi:cx="53.222443"
       sodipodi:cy="43.059597"
       sodipodi:r1="51.103725"
       sodipodi:r2="44.257122"
       sodipodi:arg1="1.0608243"
       sodipodi:arg2="1.584423"
       inkscape:flatsided="true"
       inkscape:rounded="0"
       inkscape:randomized="0"
       d="M 78.168871,87.660791 27.06989,86.964434 2.1234618,42.363241 28.276014,-1.5415965 79.374995,-0.84524045 104.32142,43.755953 Z"
       inkscape:transform-center-y="-1.3142719e-06"
       transform="matrix(0.66713761,0,0,0.70338984,102.90478,26.980701)" />
    <path
       sodipodi:type="star"
       style="fill:#000000;fill-opacity:1;stroke-width:0.26458332"
       id="path96-2-8-7"
       sodipodi:sides="6"
       sodipodi:cx="53.222443"
       sodipodi:cy="43.059597"
       sodipodi:r1="51.103725"
       sodipodi:r2="44.257122"
       sodipodi:arg1="1.0608243"
       sodipodi:arg2="1.584423"
       inkscape:flatsided="true"
       inkscape:rounded="0"
       inkscape:randomized="0"
       d="M 78.168871,87.660791 27.06989,86.964434 2.1234618,42.363241 28.276014,-1.5415965 79.374995,-0.84524045 104.32142,43.755953 Z"
       inkscape:transform-center-y="-1.3142719e-06"
       transform="matrix(0.66713761,0,0,0.70338984,136.19018,89.724754)" />
    <path
       sodipodi:type="star"
       style="fill:#000000;fill-opacity:1;stroke-width:0.26458332"
       id="path96-2-8-7-1"
       sodipodi:sides="6"
       sodipodi:cx="53.222443"
       sodipodi:cy="43.059597"
       sodipodi:r1="51.103725"
       sodipodi:r2="44.257122"
       sodipodi:arg1="1.0608243"
       sodipodi:arg2="1.584423"
       inkscape:flatsided="true"
       inkscape:rounded="0"
       inkscape:randomized="0"
       d="M 78.168871,87.660791 27.06989,86.964434 2.1234618,42.363241 28.276014,-1.5415965 79.374995,-0.84524045 104.32142,43.755953 Z"
       inkscape:transform-center-y="-1.3142719e-06"
       transform="matrix(0.66713761,0,0,0.70338984,101.29548,151.48919)" />
    <path
       sodipodi:type="star"
       style="fill:#000000;fill-opacity:1;stroke-width:0.26458332"
       id="path96-2-8-7-1-2"
       sodipodi:sides="6"
       sodipodi:cx="53.222443"
       sodipodi:cy="43.059597"
       sodipodi:r1="51.103725"
       sodipodi:r2="44.257122"
       sodipodi:arg1="1.0608243"
       sodipodi:arg2="1.584423"
       inkscape:flatsided="true"
       inkscape:rounded="0"
       inkscape:randomized="0"
       d="M 78.168871,87.660791 27.06989,86.964434 2.1234618,42.363241 28.276014,-1.5415965 79.374995,-0.84524045 104.32142,43.755953 Z"
       inkscape:transform-center-y="-1.3142719e-06"
       transform="matrix(0.66713761,0,0,0.70338984,33.115377,150.50957)" />
    <path
       sodipodi:type="star"
       style="fill:#000000;fill-opacity:1;stroke-width:0.26458332"
       id="path96-2-8-7-1-2-9"
       sodipodi:sides="6"
       sodipodi:cx="53.222443"
       sodipodi:cy="43.059597"
       sodipodi:r1="51.103725"
       sodipodi:r2="44.257122"
       sodipodi:arg1="1.0608243"
       sodipodi:arg2="1.584423"
       inkscape:flatsided="true"
       inkscape:rounded="0"
       inkscape:randomized="0"
       d="M 78.168871,87.660791 27.06989,86.964434 2.1234618,42.363241 28.276014,-1.5415965 79.374995,-0.84524045 104.32142,43.755953 Z"
       inkscape:transform-center-y="-1.3142719e-06"
       transform="matrix(0.66713761,0,0,0.70338984,-0.17002442,87.765514)" />
    <path
       style="fill:#aa0000;fill-opacity:1;stroke-width:2.85714293"
       d="M 57.986296,474.84127 C 51.784993,463.44842 37.658836,436.76984 26.594835,415.55556 L 6.4784685,376.98413 38.98167,319.84127 c 31.147163,-54.75885 32.863246,-57.13623 41.133212,-56.98412 4.746506,0.0873 33.380008,0.42117 63.630008,0.74193 l 55,0.58321 30.96329,58.62449 30.96328,58.6245 -32.04271,57.06214 -32.04272,57.06214 H 132.92371 69.26139 Z"
       id="path281"
       inkscape:connector-curvature="0"
       transform="matrix(0.26458333,0,0,0.26458333,0,17.6)" />
    <path
       style="fill:#aa0000;fill-opacity:1;stroke-width:2.85714293"
       d="m 363.46342,498.53974 -38.13863,-1.55561 -29.66253,-55.71429 c -16.31439,-30.64285 -29.6199,-57.64285 -29.56779,-60 0.0521,-2.35714 14.01146,-28.71428 31.02079,-58.57142 l 30.92605,-54.28572 63.92322,-0.76166 63.92322,-0.76167 30.71429,58.14676 c 16.89285,31.98071 30.71428,59.10881 30.71428,60.28465 0,1.17585 -14.46428,27.73624 -32.14286,59.02309 l -32.14285,56.88519 -25.71429,-0.56686 c -14.14286,-0.31177 -42.87666,-1.26688 -63.8529,-2.12246 z"
       id="path283"
       inkscape:connector-curvature="0"
       transform="matrix(0.26458333,0,0,0.26458333,0,17.6)" />
    <path
       style="fill:#aa0000;fill-opacity:1;stroke-width:2.85714293"
       d="m 237.74913,261.39688 -38.13862,-1.55561 -29.66254,-55.71428 c -16.31439,-30.64286 -29.64232,-57.64286 -29.61763,-60 0.0247,-2.35715 13.96884,-28.71429 30.98697,-58.571431 l 30.94206,-54.285715 63.95705,-0.729142 63.95704,-0.729142 31.04554,58.822402 c 23.47119,44.471178 30.44192,60.078168 28.57143,63.969508 -1.36076,2.83091 -15.97411,29.07496 -32.47411,58.32012 l -30,53.17302 -25.71428,-0.57206 c -14.14286,-0.31463 -42.87667,-1.27208 -63.85291,-2.12767 z"
       id="path285"
       inkscape:connector-curvature="0"
       transform="matrix(0.26458333,0,0,0.26458333,0,17.6)" />
    <path
       style="fill:#aa0000;fill-opacity:1;stroke-width:2.85714293"
       d="m 466.31132,264.46516 c -9.10222,-1.67926 -11.04483,-4.52564 -39.22973,-57.48103 -16.30931,-30.64286 -29.67849,-56.86762 -29.70928,-58.27725 -0.0308,-1.40962 14.25657,-28.0882 31.74971,-59.28571 l 31.80569,-56.722754 47.48002,0.310096 c 26.11401,0.170555 55.05069,1.134839 64.30373,2.142858 l 16.82372,1.83276 29.56639,55.714286 c 16.26152,30.642854 29.58371,57.111834 29.60486,58.819944 0.0211,1.70811 -14.2456,28.38668 -31.70391,59.28571 l -31.74236,56.18006 -54.68621,-0.37612 c -30.07741,-0.20685 -58.99559,-1.17115 -64.26263,-2.14285 z"
       id="path287"
       inkscape:connector-curvature="0"
       transform="matrix(0.26458333,0,0,0.26458333,0,17.6)" />
    <path
       style="fill:#aa0000;fill-opacity:1;stroke-width:2.85714293"
       d="m 592.1076,501.60801 c -8.98973,-1.67282 -11.07368,-4.72843 -39.20259,-57.48102 -16.33948,-30.64286 -29.74555,-56.91553 -29.79127,-58.38371 -0.0457,-1.46819 14.28916,-28.14676 31.85529,-59.28572 l 31.93843,-56.61629 47.34729,0.3101 c 26.04101,0.17055 54.91796,1.13484 64.171,2.14286 l 16.82371,1.83276 29.5664,55.71428 c 16.26152,30.64286 29.5837,57.15299 29.60486,58.91141 0.0211,1.75841 -14.2364,28.43698 -31.68344,59.28571 l -31.72189,56.0886 -54.70668,-0.37612 c -30.08867,-0.20686 -58.97917,-1.17115 -64.20111,-2.14286 z"
       id="path289"
       inkscape:connector-curvature="0"
       transform="matrix(0.26458333,0,0,0.26458333,0,17.6)" />
    <path
       style="fill:#aa0000;fill-opacity:1;stroke-width:2.85714293"
       d="m 489.26153,735.6826 -38.05479,-1.55561 -29.71922,-55.71429 c -16.34557,-30.64286 -29.75663,-57.33346 -29.80235,-59.31246 -0.0457,-1.979 14.13155,-28.65757 31.50506,-59.28572 l 31.58819,-55.68753 h 63.42611 63.42611 l 30.69998,58.09937 c 16.885,31.95466 30.69999,59.08705 30.69999,60.2942 0,1.20715 -14.46429,27.77358 -32.14286,59.0365 l -32.14286,56.84168 -25.71428,-0.58027 c -14.14286,-0.31915 -42.83895,-1.28029 -63.76908,-2.13587 z"
       id="path291"
       inkscape:connector-curvature="0"
       transform="matrix(0.26458333,0,0,0.26458333,0,17.6)" />
    <path
       style="fill:#aa0000;fill-opacity:1;stroke-width:2.85714293"
       d="m 183.70058,711.98413 c -6.2013,-11.39286 -20.29874,-38.07143 -31.32763,-59.28571 L 132.32041,614.12699 164.7007,556.98413 C 195.81919,502.06804 197.4196,499.84746 205.77009,500 c 4.779,0.0873 33.44553,0.40873 63.70339,0.71429 l 55.0143,0.55555 30.95924,58.59002 30.95924,58.59002 -31.95748,57.12427 -31.95749,57.12427 h -63.75781 -63.7578 z"
       id="path293"
       inkscape:connector-curvature="0"
       transform="matrix(0.26458333,0,0,0.26458333,0,17.6)" />
  </g>
</svg>
